<svg width="374" height="152" viewBox="0 0 374 152" fill="none" xmlns="http://www.w3.org/2000/svg">
<path d="M248.363 121.939C248.054 121.939 247.871 121.933 247.814 121.922C247.757 121.91 247.728 121.847 247.728 121.733C247.728 121.424 247.791 121.236 247.917 121.167C247.928 121.155 248.672 121.15 250.147 121.15C253.11 121.15 254.671 121.161 254.831 121.184C255.552 121.298 256.152 121.556 256.633 121.956C257.113 122.356 257.359 122.883 257.371 123.535C257.371 124.267 257.039 124.924 256.376 125.508C255.712 126.091 254.951 126.486 254.094 126.692L253.922 126.743C254.654 126.846 255.255 127.109 255.724 127.532C256.193 127.956 256.433 128.482 256.444 129.111C256.444 129.946 256.032 130.752 255.209 131.53C254.385 132.308 253.373 132.748 252.172 132.851C252.092 132.863 250.885 132.868 248.552 132.868C246.264 132.868 245.103 132.857 245.069 132.834C245.023 132.8 245 132.754 245 132.697C245 132.617 245.011 132.537 245.034 132.457C245.092 132.239 245.149 132.119 245.206 132.096C245.252 132.085 245.337 132.079 245.463 132.079H245.566C245.875 132.079 246.218 132.062 246.596 132.028C246.756 131.993 246.864 131.925 246.922 131.822C246.956 131.776 247.368 130.186 248.157 127.052C248.946 123.918 249.341 122.265 249.341 122.093C249.341 122.013 249.015 121.962 248.363 121.939ZM255.535 123.535C255.535 123.191 255.449 122.871 255.277 122.574C255.106 122.276 254.826 122.082 254.437 121.99C254.357 121.968 253.83 121.95 252.858 121.939C252.629 121.939 252.389 121.939 252.138 121.939C251.886 121.939 251.686 121.945 251.537 121.956H251.314C251.142 121.968 251.034 122.025 250.988 122.128C250.965 122.173 250.782 122.86 250.439 124.187C250.439 124.221 250.433 124.255 250.422 124.29L249.89 126.451H251.28C252.206 126.451 252.738 126.44 252.875 126.417C253.562 126.303 254.174 125.971 254.711 125.422C255.249 124.873 255.523 124.244 255.535 123.535ZM254.608 128.939C254.608 128.436 254.477 128.019 254.214 127.687C253.951 127.355 253.607 127.161 253.184 127.103C253.116 127.092 252.641 127.086 251.76 127.086C250.41 127.086 249.73 127.092 249.718 127.103C249.718 127.126 249.621 127.544 249.427 128.356C249.232 129.168 249.032 129.974 248.826 130.775L248.517 131.976C248.517 132.022 248.586 132.045 248.723 132.045C248.86 132.045 249.324 132.056 250.113 132.079C251.131 132.079 251.68 132.073 251.76 132.062C252.469 131.982 253.121 131.65 253.716 131.067C254.311 130.483 254.608 129.774 254.608 128.939Z" fill="#BC4D4D"/>
<path d="M260.579 133.057C259.801 133.057 259.172 132.8 258.692 132.285C258.211 131.77 257.966 131.124 257.954 130.346C257.954 129.202 258.372 128.139 259.207 127.155C260.042 126.171 261.014 125.616 262.123 125.491C262.135 125.479 262.936 125.473 264.525 125.473H266.893C266.905 125.485 266.922 125.496 266.945 125.508C266.968 125.519 266.99 125.531 267.013 125.542C267.036 125.553 267.053 125.565 267.065 125.576C267.076 125.588 267.093 125.605 267.116 125.628C267.139 125.651 267.151 125.662 267.151 125.662C267.151 125.662 267.162 125.685 267.185 125.731C267.208 125.776 267.214 125.799 267.202 125.799C267.191 125.799 267.196 125.828 267.219 125.885C267.242 125.942 267.248 125.977 267.236 125.988C267.236 126.491 266.865 126.743 266.121 126.743C266.041 126.743 265.944 126.743 265.829 126.743C265.715 126.743 265.635 126.737 265.589 126.726H264.56L264.646 126.897C264.851 127.332 264.954 127.818 264.954 128.356C264.954 129.614 264.497 130.712 263.582 131.65C262.667 132.588 261.666 133.057 260.579 133.057ZM263.616 128.098C263.616 127.183 263.13 126.726 262.158 126.726C260.739 126.726 259.819 127.721 259.395 129.711C259.384 129.757 259.378 129.791 259.378 129.814C259.287 130.237 259.241 130.586 259.241 130.861C259.241 131.433 259.384 131.833 259.67 132.062C259.956 132.291 260.282 132.411 260.648 132.422C261.266 132.422 261.832 132.153 262.346 131.616C262.678 131.273 262.947 130.815 263.153 130.243C263.359 129.671 263.485 129.214 263.53 128.871C263.576 128.527 263.605 128.27 263.616 128.098Z" fill="#BC4D4D"/>
<path d="M268.832 128.579C268.832 127.79 268.889 127.04 269.004 126.331C269.118 125.622 269.25 125.01 269.398 124.495C269.547 123.981 269.759 123.477 270.033 122.985C270.308 122.494 270.525 122.11 270.685 121.836C270.845 121.561 271.085 121.264 271.406 120.944C271.726 120.623 271.915 120.429 271.972 120.36C272.029 120.292 272.172 120.172 272.401 120H272.624H272.693C272.853 120 272.933 120.052 272.933 120.154C272.933 120.189 272.835 120.309 272.641 120.515C272.447 120.721 272.212 121.024 271.938 121.424C271.663 121.824 271.383 122.316 271.097 122.9C270.811 123.483 270.571 124.272 270.376 125.267C270.182 126.263 270.085 127.366 270.085 128.579C270.085 129.791 270.182 130.889 270.376 131.873C270.571 132.857 270.805 133.652 271.08 134.258C271.354 134.864 271.634 135.356 271.92 135.734C272.206 136.111 272.447 136.414 272.641 136.643C272.835 136.872 272.933 136.992 272.933 137.003C272.933 137.106 272.847 137.158 272.675 137.158H272.624H272.401L271.92 136.746C270.845 135.774 270.062 134.561 269.57 133.109C269.078 131.656 268.832 130.146 268.832 128.579Z" fill="#BC4D4D"/>
<path d="M277.462 131.599C277.462 131.873 277.725 132.033 278.252 132.079C278.458 132.079 278.561 132.142 278.561 132.268C278.561 132.279 278.549 132.354 278.526 132.491C278.492 132.651 278.458 132.754 278.423 132.8C278.389 132.846 278.315 132.868 278.2 132.868C278.177 132.868 278.109 132.868 277.994 132.868C277.88 132.868 277.685 132.863 277.411 132.851C277.136 132.84 276.77 132.834 276.313 132.834C275.501 132.834 274.98 132.846 274.752 132.868H274.614C274.534 132.788 274.494 132.725 274.494 132.68C274.517 132.371 274.591 132.171 274.717 132.079H274.957C275.758 132.045 276.341 131.759 276.707 131.221C276.776 131.153 277.811 129.408 279.813 125.988C281.815 122.568 282.833 120.835 282.867 120.789C282.947 120.652 283.084 120.584 283.279 120.584H283.416H283.708C283.776 120.686 283.811 120.744 283.811 120.755L284.291 126.297C284.611 129.992 284.783 131.856 284.806 131.89C284.863 132.016 285.235 132.079 285.921 132.079C286.207 132.079 286.35 132.136 286.35 132.251C286.35 132.274 286.333 132.354 286.299 132.491C286.264 132.663 286.236 132.765 286.213 132.8C286.19 132.834 286.11 132.857 285.973 132.868C285.938 132.868 285.858 132.868 285.732 132.868C285.607 132.868 285.384 132.863 285.063 132.851C284.743 132.84 284.325 132.834 283.811 132.834C282.736 132.834 282.032 132.846 281.7 132.868H281.494C281.426 132.8 281.392 132.748 281.392 132.714C281.392 132.68 281.403 132.577 281.426 132.405C281.472 132.256 281.506 132.165 281.529 132.131L281.597 132.079H281.941C282.558 132.045 282.924 131.948 283.039 131.787L282.833 129.214H278.749L278.166 130.209C277.697 130.998 277.462 131.461 277.462 131.599ZM282.747 128.407C282.747 128.282 282.678 127.389 282.541 125.731C282.404 124.072 282.324 123.237 282.301 123.226L281.838 123.964C281.655 124.272 281.294 124.884 280.757 125.799L279.212 128.407L280.98 128.425C282.158 128.425 282.747 128.419 282.747 128.407Z" fill="#BC4D4D"/>
<path d="M287.208 126.263C287.128 126.183 287.088 126.125 287.088 126.091C287.088 126.045 287.105 125.954 287.139 125.817C287.173 125.679 287.202 125.599 287.225 125.576C287.248 125.519 287.299 125.491 287.379 125.491C287.459 125.491 287.751 125.485 288.254 125.473H289.164L289.49 124.101C289.524 123.975 289.564 123.809 289.61 123.603C289.656 123.397 289.696 123.249 289.73 123.157C289.764 123.066 289.799 122.951 289.833 122.814C289.867 122.677 289.913 122.579 289.97 122.522C290.027 122.465 290.085 122.396 290.142 122.316C290.199 122.236 290.279 122.185 290.382 122.162C290.485 122.139 290.588 122.128 290.691 122.128C290.897 122.139 291.04 122.202 291.12 122.316C291.2 122.431 291.24 122.539 291.24 122.642C291.24 122.722 291.188 122.991 291.085 123.449C290.982 123.906 290.868 124.358 290.742 124.804L290.571 125.439C290.571 125.462 290.857 125.473 291.429 125.473H292.304C292.384 125.553 292.424 125.616 292.424 125.662C292.424 125.914 292.349 126.114 292.201 126.263H290.365L289.747 128.75C289.301 130.581 289.078 131.564 289.078 131.702C289.078 132.182 289.232 132.422 289.541 132.422C289.942 132.422 290.33 132.228 290.708 131.839C291.085 131.45 291.388 130.97 291.617 130.398C291.64 130.329 291.669 130.289 291.703 130.277C291.737 130.266 291.823 130.255 291.96 130.243H292.029C292.201 130.243 292.286 130.289 292.286 130.38C292.286 130.415 292.269 130.483 292.235 130.586C292.178 130.769 292.075 130.987 291.926 131.238C291.777 131.49 291.583 131.759 291.343 132.045C291.103 132.331 290.811 132.571 290.468 132.765C290.125 132.96 289.776 133.057 289.421 133.057C289.078 133.057 288.752 132.971 288.443 132.8C288.134 132.628 287.911 132.331 287.774 131.907C287.751 131.816 287.74 131.662 287.74 131.444V131.135L288.34 128.733C288.741 127.12 288.946 126.308 288.958 126.297C288.958 126.274 288.666 126.263 288.083 126.263H287.208Z" fill="#BC4D4D"/>
<path d="M293.985 120.017L294.054 120C294.111 120 294.168 120 294.225 120H294.431L294.912 120.412C295.987 121.384 296.77 122.597 297.262 124.049C297.754 125.502 298 127.012 298 128.579C298 129.357 297.943 130.106 297.829 130.827C297.714 131.547 297.583 132.159 297.434 132.662C297.285 133.166 297.074 133.669 296.799 134.172C296.525 134.676 296.307 135.059 296.147 135.322C295.987 135.585 295.752 135.877 295.444 136.197C295.135 136.517 294.952 136.706 294.895 136.763C294.837 136.82 294.706 136.929 294.5 137.089C294.466 137.123 294.443 137.146 294.431 137.158H294.225C294.134 137.158 294.071 137.158 294.037 137.158C294.002 137.158 293.974 137.141 293.951 137.106C293.928 137.072 293.911 137.02 293.899 136.952C293.911 136.94 293.974 136.866 294.088 136.729C295.861 134.887 296.748 132.171 296.748 128.579C296.748 124.987 295.861 122.271 294.088 120.429C293.974 120.292 293.911 120.217 293.899 120.206C293.899 120.114 293.928 120.052 293.985 120.017Z" fill="#BC4D4D"/>
<path d="M310.747 128.883C310.747 128.36 310.315 128 309.883 128C309.36 128 309 128.432 309 128.865C309 129.387 309.432 129.747 309.865 129.747C310.387 129.747 310.747 129.315 310.747 128.883Z" fill="#BC4D4D"/>
<path d="M318.648 128.883C318.648 128.36 318.216 128 317.784 128C317.261 128 316.901 128.432 316.901 128.865C316.901 129.387 317.333 129.747 317.766 129.747C318.288 129.747 318.648 129.315 318.648 128.883Z" fill="#BC4D4D"/>
<path d="M326.55 128.883C326.55 128.36 326.117 128 325.685 128C325.163 128 324.802 128.432 324.802 128.865C324.802 129.387 325.235 129.747 325.667 129.747C326.189 129.747 326.55 129.315 326.55 128.883Z" fill="#BC4D4D"/>
<path d="M134.45 132.861C133.819 133.924 133.207 134.284 132.342 134.338C132.144 134.356 132 134.356 132 134.681C132 134.789 132.09 134.861 132.216 134.861C132.54 134.861 133.351 134.825 133.675 134.825C134.198 134.825 134.774 134.861 135.278 134.861C135.386 134.861 135.602 134.861 135.602 134.519C135.602 134.356 135.458 134.338 135.35 134.338C134.936 134.302 134.594 134.158 134.594 133.726C134.594 133.474 134.702 133.276 134.936 132.879L136.305 130.61H140.898C140.916 130.772 140.916 130.916 140.934 131.078C140.988 131.547 141.204 133.42 141.204 133.762C141.204 134.302 140.286 134.338 139.998 134.338C139.799 134.338 139.601 134.338 139.601 134.663C139.601 134.861 139.763 134.861 139.871 134.861C140.178 134.861 140.538 134.825 140.844 134.825H141.871C142.97 134.825 143.762 134.861 143.78 134.861C143.906 134.861 144.104 134.861 144.104 134.519C144.104 134.338 143.942 134.338 143.672 134.338C142.681 134.338 142.663 134.176 142.609 133.636L141.511 122.396C141.475 122.036 141.402 122 141.204 122C141.024 122 140.916 122.036 140.754 122.306L134.45 132.861ZM136.611 130.088L140.232 124.035L140.844 130.088H136.611Z" fill="#BC4D4D"/>
<path d="M148.23 127.62H149.887C150.229 127.62 150.409 127.62 150.409 127.296C150.409 127.098 150.301 127.098 149.941 127.098H148.356L149.022 124.468C149.094 124.216 149.094 124.18 149.094 124.053C149.094 123.765 148.86 123.603 148.626 123.603C148.482 123.603 148.067 123.657 147.923 124.234L147.221 127.098H145.528C145.167 127.098 145.005 127.098 145.005 127.44C145.005 127.62 145.131 127.62 145.474 127.62H147.077L145.888 132.375C145.744 133.006 145.69 133.186 145.69 133.42C145.69 134.266 146.284 135.041 147.293 135.041C149.112 135.041 150.085 132.411 150.085 132.285C150.085 132.177 150.013 132.123 149.905 132.123C149.869 132.123 149.797 132.123 149.761 132.195C149.743 132.213 149.725 132.231 149.599 132.519C149.22 133.42 148.392 134.681 147.347 134.681C146.807 134.681 146.771 134.23 146.771 133.834C146.771 133.816 146.771 133.474 146.825 133.258L148.23 127.62Z" fill="#BC4D4D"/>
<path d="M191.466 125.719C191.7 125.719 192.294 125.719 192.294 125.142C192.294 124.746 191.952 124.746 191.628 124.746H187.647C184.945 124.746 183 127.754 183 129.88C183 131.411 183.991 132.689 185.612 132.689C187.737 132.689 190.061 130.402 190.061 127.7C190.061 126.998 189.899 126.313 189.466 125.719H191.466ZM185.63 132.329C184.711 132.329 184.045 131.627 184.045 130.384C184.045 129.303 184.693 125.719 187.341 125.719C188.116 125.719 188.98 126.097 188.98 127.484C188.98 128.114 188.692 129.627 188.062 130.672C187.413 131.735 186.44 132.329 185.63 132.329Z" fill="#BC4D4D"/>
<path d="M198.84 136.886C198.84 136.832 198.84 136.796 198.534 136.49C196.733 134.671 195.724 131.699 195.724 128.024C195.724 124.53 196.571 121.522 198.66 119.396C198.84 119.234 198.84 119.198 198.84 119.144C198.84 119.036 198.75 119 198.678 119C198.444 119 196.967 120.297 196.084 122.062C195.166 123.881 194.751 125.809 194.751 128.024C194.751 129.627 195.004 131.771 195.94 133.698C197.003 135.86 198.48 137.031 198.678 137.031C198.75 137.031 198.84 136.994 198.84 136.886Z" fill="#BC4D4D"/>
<path d="M202.907 130.51C202.277 131.573 201.664 131.933 200.8 131.987C200.602 132.005 200.458 132.005 200.458 132.329C200.458 132.437 200.548 132.509 200.674 132.509C200.998 132.509 201.808 132.473 202.133 132.473C202.655 132.473 203.231 132.509 203.736 132.509C203.844 132.509 204.06 132.509 204.06 132.167C204.06 132.005 203.916 131.987 203.808 131.987C203.394 131.951 203.051 131.807 203.051 131.374C203.051 131.122 203.159 130.924 203.394 130.528L204.762 128.258H209.356C209.374 128.42 209.374 128.565 209.392 128.727C209.446 129.195 209.662 131.068 209.662 131.411C209.662 131.951 208.743 131.987 208.455 131.987C208.257 131.987 208.059 131.987 208.059 132.311C208.059 132.509 208.221 132.509 208.329 132.509C208.635 132.509 208.995 132.473 209.302 132.473H210.328C211.427 132.473 212.22 132.509 212.238 132.509C212.364 132.509 212.562 132.509 212.562 132.167C212.562 131.987 212.4 131.987 212.13 131.987C211.139 131.987 211.121 131.825 211.067 131.284L209.968 120.045C209.932 119.684 209.86 119.648 209.662 119.648C209.482 119.648 209.374 119.684 209.212 119.955L202.907 130.51ZM205.069 127.736L208.689 121.684L209.302 127.736H205.069Z" fill="#BC4D4D"/>
<path d="M216.687 125.268H218.344C218.687 125.268 218.867 125.268 218.867 124.944C218.867 124.746 218.759 124.746 218.398 124.746H216.813L217.48 122.116C217.552 121.864 217.552 121.828 217.552 121.702C217.552 121.414 217.318 121.252 217.083 121.252C216.939 121.252 216.525 121.306 216.381 121.882L215.678 124.746H213.985C213.625 124.746 213.463 124.746 213.463 125.088C213.463 125.268 213.589 125.268 213.931 125.268H215.534L214.346 130.024C214.201 130.654 214.147 130.834 214.147 131.068C214.147 131.915 214.742 132.689 215.75 132.689C217.57 132.689 218.542 130.06 218.542 129.934C218.542 129.825 218.47 129.771 218.362 129.771C218.326 129.771 218.254 129.771 218.218 129.843C218.2 129.861 218.182 129.88 218.056 130.168C217.678 131.068 216.849 132.329 215.805 132.329C215.264 132.329 215.228 131.879 215.228 131.483C215.228 131.465 215.228 131.122 215.282 130.906L216.687 125.268Z" fill="#BC4D4D"/>
<path d="M224.515 128.024C224.515 126.655 224.335 124.422 223.326 122.332C222.264 120.171 220.787 119 220.588 119C220.516 119 220.426 119.036 220.426 119.144C220.426 119.198 220.426 119.234 220.732 119.54C222.534 121.36 223.542 124.332 223.542 128.006C223.542 131.501 222.696 134.509 220.606 136.634C220.426 136.796 220.426 136.832 220.426 136.886C220.426 136.994 220.516 137.031 220.588 137.031C220.823 137.031 222.3 135.734 223.182 133.968C224.101 132.131 224.515 130.186 224.515 128.024Z" fill="#BC4D4D"/>
<path d="M357 129.6H357.828V108.828H360.998V108H357V129.6Z" fill="#BC4D4D"/>
<path d="M357 151.2H360.998V150.372H357.828V129.6H357V151.2Z" fill="#BC4D4D"/>
<path d="M366.781 113.095C366.397 113.167 366.253 113.455 366.253 113.683C366.253 113.971 366.481 114.068 366.649 114.068C367.01 114.068 367.262 113.755 367.262 113.431C367.262 112.927 366.685 112.699 366.181 112.699C365.449 112.699 365.04 113.419 364.932 113.647C364.656 112.747 363.912 112.699 363.696 112.699C362.471 112.699 361.823 114.272 361.823 114.536C361.823 114.584 361.871 114.644 361.955 114.644C362.051 114.644 362.075 114.572 362.099 114.524C362.507 113.191 363.312 112.939 363.66 112.939C364.2 112.939 364.308 113.443 364.308 113.731C364.308 113.995 364.236 114.272 364.092 114.848L363.684 116.493C363.504 117.213 363.155 117.874 362.519 117.874C362.459 117.874 362.159 117.874 361.907 117.718C362.339 117.633 362.435 117.273 362.435 117.129C362.435 116.889 362.255 116.745 362.027 116.745C361.739 116.745 361.427 116.997 361.427 117.381C361.427 117.886 361.991 118.114 362.507 118.114C363.083 118.114 363.492 117.657 363.744 117.165C363.936 117.874 364.536 118.114 364.98 118.114C366.205 118.114 366.853 116.541 366.853 116.277C366.853 116.217 366.805 116.169 366.733 116.169C366.625 116.169 366.613 116.229 366.577 116.325C366.253 117.381 365.557 117.874 365.016 117.874C364.596 117.874 364.368 117.561 364.368 117.069C364.368 116.805 364.416 116.613 364.608 115.82L365.028 114.188C365.209 113.467 365.617 112.939 366.169 112.939C366.193 112.939 366.529 112.939 366.781 113.095Z" fill="#BC4D4D"/>
<path d="M364.507 133.846C364.183 134.303 363.714 134.711 363.126 134.711C362.982 134.711 362.406 134.687 362.226 134.135C362.262 134.147 362.322 134.147 362.346 134.147C362.706 134.147 362.946 133.834 362.946 133.558C362.946 133.282 362.718 133.186 362.538 133.186C362.346 133.186 361.925 133.33 361.925 133.918C361.925 134.531 362.442 134.951 363.126 134.951C364.327 134.951 365.539 133.846 365.876 132.514L367.052 127.831C367.064 127.771 367.088 127.699 367.088 127.627C367.088 127.447 366.944 127.327 366.764 127.327C366.656 127.327 366.404 127.375 366.308 127.735L365.419 131.265C365.359 131.481 365.359 131.505 365.263 131.637C365.023 131.973 364.627 132.382 364.051 132.382C363.378 132.382 363.318 131.721 363.318 131.397C363.318 130.713 363.642 129.788 363.967 128.924C364.099 128.576 364.171 128.407 364.171 128.167C364.171 127.663 363.811 127.207 363.222 127.207C362.118 127.207 361.673 128.948 361.673 129.044C361.673 129.092 361.721 129.152 361.805 129.152C361.913 129.152 361.925 129.104 361.974 128.936C362.262 127.927 362.718 127.447 363.186 127.447C363.294 127.447 363.498 127.447 363.498 127.843C363.498 128.155 363.366 128.503 363.186 128.96C362.598 130.533 362.598 130.929 362.598 131.217C362.598 132.358 363.414 132.622 364.015 132.622C364.363 132.622 364.795 132.514 365.215 132.069L365.227 132.081C365.047 132.79 364.927 133.258 364.507 133.846Z" fill="#BC4D4D"/>
<path d="M362.957 146.037C363.474 145.449 363.894 145.077 364.494 144.536C365.215 143.912 365.527 143.612 365.695 143.432C366.535 142.603 366.955 141.907 366.955 141.811C366.955 141.715 366.859 141.715 366.835 141.715C366.751 141.715 366.727 141.763 366.667 141.847C366.367 142.363 366.079 142.615 365.767 142.615C365.515 142.615 365.383 142.507 365.154 142.219C364.902 141.919 364.698 141.715 364.35 141.715C363.474 141.715 362.945 142.807 362.945 143.059C362.945 143.096 362.957 143.168 363.065 143.168C363.161 143.168 363.173 143.12 363.209 143.035C363.414 142.555 363.99 142.471 364.218 142.471C364.47 142.471 364.71 142.555 364.962 142.663C365.419 142.855 365.611 142.855 365.731 142.855C365.815 142.855 365.863 142.855 365.923 142.843C365.527 143.312 364.878 143.888 364.338 144.38L363.125 145.497C362.393 146.241 361.949 146.95 361.949 147.034C361.949 147.106 362.009 147.13 362.081 147.13C362.153 147.13 362.165 147.118 362.249 146.974C362.441 146.673 362.825 146.229 363.269 146.229C363.522 146.229 363.642 146.313 363.882 146.613C364.11 146.878 364.314 147.13 364.698 147.13C365.875 147.13 366.547 145.605 366.547 145.329C366.547 145.281 366.535 145.209 366.415 145.209C366.319 145.209 366.307 145.257 366.271 145.377C366.007 146.085 365.299 146.373 364.83 146.373C364.578 146.373 364.338 146.289 364.086 146.181C363.606 145.989 363.474 145.989 363.317 145.989C363.197 145.989 363.065 145.989 362.957 146.037Z" fill="#BC4D4D"/>
<path d="M371.025 129.6H371.853V108H367.855V108.828H371.025V129.6Z" fill="#BC4D4D"/>
<path d="M371.025 150.372H367.855V151.2H371.853V129.6H371.025V150.372Z" fill="#BC4D4D"/>
<path d="M31 129.6H31.8285V108.828H34.9982V108H31V129.6Z" fill="#BC4D4D"/>
<path d="M31 151.2H34.9982V150.372H31.8285V129.6H31V151.2Z" fill="#BC4D4D"/>
<path d="M37.9863 115.592C38.1904 115.628 38.5145 115.7 38.5866 115.712C38.7427 115.76 39.283 115.953 39.283 116.529C39.283 116.901 38.9468 117.874 37.554 117.874C37.3019 117.874 36.4014 117.838 36.1612 117.177C36.6415 117.237 36.8816 116.865 36.8816 116.601C36.8816 116.349 36.7136 116.217 36.4734 116.217C36.2093 116.217 35.8611 116.421 35.8611 116.961C35.8611 117.669 36.5815 118.114 37.542 118.114C39.367 118.114 39.9073 116.769 39.9073 116.145C39.9073 115.965 39.9073 115.628 39.5231 115.244C39.2229 114.956 38.9348 114.896 38.2864 114.764C37.9622 114.692 37.446 114.584 37.446 114.044C37.446 113.803 37.6621 112.939 38.8027 112.939C39.307 112.939 39.7993 113.131 39.9193 113.563C39.391 113.563 39.367 114.019 39.367 114.031C39.367 114.284 39.5951 114.356 39.7032 114.356C39.8713 114.356 40.2075 114.224 40.2075 113.719C40.2075 113.215 39.7512 112.699 38.8147 112.699C37.2418 112.699 36.8216 113.935 36.8216 114.428C36.8216 115.34 37.7101 115.532 37.9863 115.592Z" fill="#BC4D4D"/>
<path d="M44.1845 116.277C44.1845 116.217 44.1365 116.169 44.0645 116.169C43.9564 116.169 43.9444 116.205 43.8844 116.409C43.5722 117.501 43.0799 117.874 42.6837 117.874C42.5396 117.874 42.3715 117.838 42.3715 117.477C42.3715 117.153 42.5156 116.793 42.6477 116.433L43.4881 114.2C43.5242 114.104 43.6082 113.887 43.6082 113.659C43.6082 113.155 43.248 112.699 42.6597 112.699C41.5551 112.699 41.1108 114.44 41.1108 114.536C41.1108 114.584 41.1589 114.644 41.2429 114.644C41.351 114.644 41.363 114.596 41.411 114.428C41.6992 113.419 42.1554 112.939 42.6237 112.939C42.7317 112.939 42.9358 112.951 42.9358 113.335C42.9358 113.647 42.7798 114.044 42.6837 114.308L41.8432 116.541C41.7712 116.733 41.6992 116.925 41.6992 117.141C41.6992 117.682 42.0714 118.114 42.6477 118.114C43.7523 118.114 44.1845 116.361 44.1845 116.277ZM44.0885 110.502C44.0885 110.321 43.9444 110.105 43.6803 110.105C43.4041 110.105 43.0919 110.369 43.0919 110.682C43.0919 110.982 43.3441 111.078 43.4881 111.078C43.8123 111.078 44.0885 110.766 44.0885 110.502Z" fill="#BC4D4D"/>
<path d="M47.2708 114.476C47.2948 114.404 47.5949 113.803 48.0392 113.419C48.3514 113.131 48.7596 112.939 49.2278 112.939C49.7081 112.939 49.8762 113.299 49.8762 113.779C49.8762 114.464 49.3839 115.832 49.1438 116.481C49.0357 116.769 48.9757 116.925 48.9757 117.141C48.9757 117.682 49.3479 118.114 49.9242 118.114C51.0408 118.114 51.4611 116.349 51.4611 116.277C51.4611 116.217 51.413 116.169 51.341 116.169C51.2329 116.169 51.2209 116.205 51.1609 116.409C50.8848 117.393 50.4285 117.874 49.9602 117.874C49.8402 117.874 49.6481 117.862 49.6481 117.477C49.6481 117.177 49.7801 116.817 49.8522 116.649C50.0923 115.989 50.5966 114.644 50.5966 113.959C50.5966 113.239 50.1764 112.699 49.2639 112.699C48.1953 112.699 47.631 113.455 47.4148 113.755C47.3788 113.071 46.8866 112.699 46.3583 112.699C45.9741 112.699 45.7099 112.927 45.5058 113.335C45.2897 113.767 45.1216 114.488 45.1216 114.536C45.1216 114.584 45.1696 114.644 45.2537 114.644C45.3497 114.644 45.3617 114.632 45.4338 114.356C45.6259 113.623 45.842 112.939 46.3222 112.939C46.5984 112.939 46.6944 113.131 46.6944 113.491C46.6944 113.755 46.5744 114.224 46.4903 114.596L46.1542 115.893C46.1061 116.121 45.9741 116.661 45.914 116.877C45.83 117.189 45.6979 117.754 45.6979 117.814C45.6979 117.982 45.83 118.114 46.0101 118.114C46.1542 118.114 46.3222 118.042 46.4183 117.862C46.4423 117.802 46.5504 117.381 46.6104 117.141L46.8745 116.061L47.2708 114.476Z" fill="#BC4D4D"/>
<path d="M55.717 120.911C55.717 120.875 55.717 120.851 55.5128 120.647C54.3122 119.434 53.6398 117.453 53.6398 115.004C53.6398 112.675 54.2041 110.67 55.5969 109.253C55.717 109.145 55.717 109.121 55.717 109.085C55.717 109.013 55.6569 108.989 55.6089 108.989C55.4528 108.989 54.4683 109.853 53.8799 111.03C53.2676 112.243 52.9915 113.527 52.9915 115.004C52.9915 116.073 53.1595 117.501 53.7839 118.786C54.4923 120.227 55.4768 121.007 55.6089 121.007C55.6569 121.007 55.717 120.983 55.717 120.911Z" fill="#BC4D4D"/>
<path d="M59.4965 113.467H60.8533C60.5291 114.812 60.325 115.688 60.325 116.649C60.325 116.817 60.325 118.114 60.8172 118.114C61.0694 118.114 61.2855 117.886 61.2855 117.682C61.2855 117.621 61.2855 117.597 61.2015 117.417C60.8773 116.589 60.8773 115.556 60.8773 115.472C60.8773 115.4 60.8773 114.548 61.1294 113.467H62.4742C62.6302 113.467 63.0265 113.467 63.0265 113.083C63.0265 112.819 62.7983 112.819 62.5822 112.819H58.632C58.3559 112.819 57.9477 112.819 57.3954 113.407C57.0832 113.755 56.699 114.392 56.699 114.464C56.699 114.536 56.759 114.56 56.831 114.56C56.9151 114.56 56.9271 114.524 56.9871 114.452C57.6115 113.467 58.2358 113.467 58.536 113.467H59.2204C58.9562 114.368 58.6561 115.412 57.6715 117.513C57.5755 117.706 57.5755 117.73 57.5755 117.802C57.5755 118.054 57.7916 118.114 57.8996 118.114C58.2478 118.114 58.3439 117.802 58.488 117.297C58.6801 116.685 58.6801 116.661 58.8001 116.181L59.4965 113.467Z" fill="#BC4D4D"/>
<path d="M66.2238 115.592C66.4279 115.628 66.7521 115.7 66.8241 115.712C66.9802 115.76 67.5205 115.953 67.5205 116.529C67.5205 116.901 67.1843 117.874 65.7916 117.874C65.5394 117.874 64.6389 117.838 64.3988 117.177C64.8791 117.237 65.1192 116.865 65.1192 116.601C65.1192 116.349 64.9511 116.217 64.711 116.217C64.4468 116.217 64.0986 116.421 64.0986 116.961C64.0986 117.669 64.819 118.114 65.7796 118.114C67.6046 118.114 68.1449 116.769 68.1449 116.145C68.1449 115.965 68.1449 115.628 67.7607 115.244C67.4605 114.956 67.1723 114.896 66.524 114.764C66.1998 114.692 65.6835 114.584 65.6835 114.044C65.6835 113.803 65.8996 112.939 67.0403 112.939C67.5445 112.939 68.0368 113.131 68.1569 113.563C67.6286 113.563 67.6046 114.019 67.6046 114.031C67.6046 114.284 67.8327 114.356 67.9407 114.356C68.1088 114.356 68.445 114.224 68.445 113.719C68.445 113.215 67.9888 112.699 67.0523 112.699C65.4794 112.699 65.0592 113.935 65.0592 114.428C65.0592 115.34 65.9477 115.532 66.2238 115.592Z" fill="#BC4D4D"/>
<path d="M72.4101 115.004C72.4101 114.092 72.29 112.603 71.6176 111.21C70.9092 109.769 69.9247 108.989 69.7926 108.989C69.7446 108.989 69.6846 109.013 69.6846 109.085C69.6846 109.121 69.6846 109.145 69.8887 109.349C71.0893 110.562 71.7617 112.543 71.7617 114.992C71.7617 117.321 71.1974 119.326 69.8046 120.743C69.6846 120.851 69.6846 120.875 69.6846 120.911C69.6846 120.983 69.7446 121.007 69.7926 121.007C69.9487 121.007 70.9333 120.143 71.5216 118.966C72.1339 117.742 72.4101 116.445 72.4101 115.004Z" fill="#BC4D4D"/>
<path d="M78.2907 113.479C78.0626 113.479 77.9546 113.479 77.7865 113.623C77.7144 113.683 77.5823 113.863 77.5823 114.056C77.5823 114.296 77.7624 114.44 77.9906 114.44C78.2787 114.44 78.6029 114.2 78.6029 113.719C78.6029 113.143 78.0506 112.699 77.2221 112.699C75.6493 112.699 74.0764 114.416 74.0764 116.121C74.0764 117.165 74.7248 118.114 75.9494 118.114C77.5823 118.114 78.6149 116.841 78.6149 116.685C78.6149 116.613 78.5429 116.553 78.4948 116.553C78.4588 116.553 78.4468 116.565 78.3388 116.673C77.5703 117.694 76.4297 117.874 75.9735 117.874C75.145 117.874 74.8809 117.153 74.8809 116.553C74.8809 116.133 75.085 114.968 75.5172 114.152C75.8294 113.587 76.4777 112.939 77.2342 112.939C77.3902 112.939 78.0506 112.963 78.2907 113.479Z" fill="#BC4D4D"/>
<path d="M84.1307 114.692C84.1307 113.551 83.3863 112.699 82.2937 112.699C80.7088 112.699 79.1479 114.428 79.1479 116.121C79.1479 117.261 79.8924 118.114 80.985 118.114C82.5818 118.114 84.1307 116.385 84.1307 114.692ZM80.997 117.874C80.3966 117.874 79.9524 117.393 79.9524 116.553C79.9524 116.001 80.2406 114.776 80.5767 114.176C81.117 113.251 81.7894 112.939 82.2817 112.939C82.87 112.939 83.3263 113.419 83.3263 114.26C83.3263 114.74 83.0741 116.025 82.6179 116.757C82.1256 117.561 81.4652 117.874 80.997 117.874Z" fill="#BC4D4D"/>
<path d="M87.0448 115.592C87.249 115.628 87.5731 115.7 87.6452 115.712C87.8013 115.76 88.3416 115.953 88.3416 116.529C88.3416 116.901 88.0054 117.874 86.6126 117.874C86.3605 117.874 85.46 117.838 85.2198 117.177C85.7001 117.237 85.9402 116.865 85.9402 116.601C85.9402 116.349 85.7721 116.217 85.532 116.217C85.2679 116.217 84.9197 116.421 84.9197 116.961C84.9197 117.669 85.6401 118.114 86.6006 118.114C88.4256 118.114 88.9659 116.769 88.9659 116.145C88.9659 115.965 88.9659 115.628 88.5817 115.244C88.2815 114.956 87.9934 114.896 87.345 114.764C87.0208 114.692 86.5046 114.584 86.5046 114.044C86.5046 113.803 86.7207 112.939 87.8613 112.939C88.3656 112.939 88.8578 113.131 88.9779 113.563C88.4496 113.563 88.4256 114.019 88.4256 114.031C88.4256 114.284 88.6537 114.356 88.7618 114.356C88.9299 114.356 89.2661 114.224 89.2661 113.719C89.2661 113.215 88.8098 112.699 87.8733 112.699C86.3004 112.699 85.8802 113.935 85.8802 114.428C85.8802 115.34 86.7687 115.532 87.0448 115.592Z" fill="#BC4D4D"/>
<path d="M93.7472 120.911C93.7472 120.875 93.7472 120.851 93.5431 120.647C92.3425 119.434 91.6701 117.453 91.6701 115.004C91.6701 112.675 92.2344 110.67 93.6272 109.253C93.7472 109.145 93.7472 109.121 93.7472 109.085C93.7472 109.013 93.6872 108.989 93.6392 108.989C93.4831 108.989 92.4985 109.853 91.9102 111.03C91.2979 112.243 91.0217 113.527 91.0217 115.004C91.0217 116.073 91.1898 117.501 91.8142 118.786C92.5226 120.227 93.5071 121.007 93.6392 121.007C93.6872 121.007 93.7472 120.983 93.7472 120.911Z" fill="#BC4D4D"/>
<path d="M99.6997 115.977H99.4356C99.3995 116.181 99.3035 116.841 99.1834 117.033C99.0994 117.141 98.415 117.141 98.0548 117.141H95.8336C96.1578 116.865 96.8902 116.097 97.2023 115.809C99.0273 114.128 99.6997 113.503 99.6997 112.315C99.6997 110.934 98.6071 110.009 97.2143 110.009C95.8216 110.009 95.0051 111.198 95.0051 112.231C95.0051 112.843 95.5334 112.843 95.5694 112.843C95.8216 112.843 96.1337 112.663 96.1337 112.279C96.1337 111.942 95.9056 111.714 95.5694 111.714C95.4614 111.714 95.4374 111.714 95.4013 111.726C95.6295 110.91 96.2778 110.357 97.0583 110.357C98.0788 110.357 98.7032 111.21 98.7032 112.315C98.7032 113.335 98.1148 114.224 97.4305 114.992L95.0051 117.706V117.994H99.3875L99.6997 115.977Z" fill="#BC4D4D"/>
<path d="M103.405 113.467H104.762C104.438 114.812 104.233 115.688 104.233 116.649C104.233 116.817 104.233 118.114 104.726 118.114C104.978 118.114 105.194 117.886 105.194 117.682C105.194 117.621 105.194 117.597 105.11 117.417C104.786 116.589 104.786 115.556 104.786 115.472C104.786 115.4 104.786 114.548 105.038 113.467H106.383C106.539 113.467 106.935 113.467 106.935 113.083C106.935 112.819 106.707 112.819 106.491 112.819H102.54C102.264 112.819 101.856 112.819 101.304 113.407C100.992 113.755 100.607 114.392 100.607 114.464C100.607 114.536 100.667 114.56 100.739 114.56C100.824 114.56 100.836 114.524 100.896 114.452C101.52 113.467 102.144 113.467 102.444 113.467H103.129C102.865 114.368 102.565 115.412 101.58 117.513C101.484 117.706 101.484 117.73 101.484 117.802C101.484 118.054 101.7 118.114 101.808 118.114C102.156 118.114 102.252 117.802 102.396 117.297C102.589 116.685 102.589 116.661 102.709 116.181L103.405 113.467Z" fill="#BC4D4D"/>
<path d="M109.808 113.167H110.913C111.141 113.167 111.261 113.167 111.261 112.951C111.261 112.819 111.189 112.819 110.949 112.819H109.892L110.337 111.066C110.385 110.898 110.385 110.874 110.385 110.79C110.385 110.598 110.229 110.49 110.073 110.49C109.976 110.49 109.7 110.526 109.604 110.91L109.136 112.819H108.007C107.767 112.819 107.659 112.819 107.659 113.047C107.659 113.167 107.743 113.167 107.971 113.167H109.04L108.248 116.337C108.151 116.757 108.115 116.877 108.115 117.033C108.115 117.597 108.512 118.114 109.184 118.114C110.397 118.114 111.045 116.361 111.045 116.277C111.045 116.205 110.997 116.169 110.925 116.169C110.901 116.169 110.853 116.169 110.829 116.217C110.817 116.229 110.805 116.241 110.721 116.433C110.469 117.033 109.916 117.874 109.22 117.874C108.86 117.874 108.836 117.573 108.836 117.309C108.836 117.297 108.836 117.069 108.872 116.925L109.808 113.167Z" fill="#BC4D4D"/>
<path d="M115.026 115.004C115.026 114.092 114.906 112.603 114.234 111.21C113.525 109.769 112.541 108.989 112.409 108.989C112.361 108.989 112.301 109.013 112.301 109.085C112.301 109.121 112.301 109.145 112.505 109.349C113.705 110.562 114.378 112.543 114.378 114.992C114.378 117.321 113.813 119.326 112.421 120.743C112.301 120.851 112.301 120.875 112.301 120.911C112.301 120.983 112.361 121.007 112.409 121.007C112.565 121.007 113.549 120.143 114.138 118.966C114.75 117.742 115.026 116.445 115.026 115.004Z" fill="#BC4D4D"/>
<path d="M37.8278 130.1C38.0319 130.136 38.3561 130.208 38.4281 130.22C38.5842 130.268 39.1245 130.461 39.1245 131.037C39.1245 131.409 38.7883 132.382 37.3956 132.382C37.1434 132.382 36.2429 132.346 36.0028 131.685C36.4831 131.745 36.7232 131.373 36.7232 131.109C36.7232 130.857 36.5551 130.725 36.315 130.725C36.0508 130.725 35.7026 130.929 35.7026 131.469C35.7026 132.177 36.423 132.622 37.3836 132.622C39.2086 132.622 39.7489 131.277 39.7489 130.653C39.7489 130.473 39.7489 130.136 39.3647 129.752C39.0645 129.464 38.7763 129.404 38.128 129.272C37.8038 129.2 37.2875 129.092 37.2875 128.551C37.2875 128.311 37.5036 127.447 38.6443 127.447C39.1485 127.447 39.6408 127.639 39.7609 128.071C39.2326 128.071 39.2086 128.527 39.2086 128.539C39.2086 128.792 39.4367 128.864 39.5448 128.864C39.7128 128.864 40.049 128.732 40.049 128.227C40.049 127.723 39.5928 127.207 38.6563 127.207C37.0834 127.207 36.6632 128.443 36.6632 128.936C36.6632 129.848 37.5517 130.04 37.8278 130.1Z" fill="#BC4D4D"/>
<path d="M44.0258 130.785C44.0258 130.725 43.9778 130.677 43.9058 130.677C43.7977 130.677 43.7857 130.713 43.7257 130.917C43.4135 132.009 42.9212 132.382 42.525 132.382C42.3809 132.382 42.2128 132.346 42.2128 131.985C42.2128 131.661 42.3569 131.301 42.489 130.941L43.3295 128.708C43.3655 128.612 43.4495 128.395 43.4495 128.167C43.4495 127.663 43.0893 127.207 42.501 127.207C41.3964 127.207 40.9521 128.948 40.9521 129.044C40.9521 129.092 41.0002 129.152 41.0842 129.152C41.1923 129.152 41.2043 129.104 41.2523 128.936C41.5405 127.927 41.9967 127.447 42.465 127.447C42.573 127.447 42.7772 127.459 42.7772 127.843C42.7772 128.155 42.6211 128.552 42.525 128.816L41.6846 131.049C41.6125 131.241 41.5405 131.433 41.5405 131.649C41.5405 132.19 41.9127 132.622 42.489 132.622C43.5936 132.622 44.0258 130.869 44.0258 130.785ZM43.9298 125.01C43.9298 124.829 43.7857 124.613 43.5216 124.613C43.2454 124.613 42.9332 124.877 42.9332 125.19C42.9332 125.49 43.1854 125.586 43.3295 125.586C43.6536 125.586 43.9298 125.274 43.9298 125.01Z" fill="#BC4D4D"/>
<path d="M47.1121 128.984C47.1361 128.912 47.4363 128.311 47.8805 127.927C48.1927 127.639 48.6009 127.447 49.0692 127.447C49.5494 127.447 49.7175 127.807 49.7175 128.287C49.7175 128.972 49.2252 130.34 48.9851 130.989C48.877 131.277 48.817 131.433 48.817 131.649C48.817 132.189 49.1892 132.622 49.7655 132.622C50.8822 132.622 51.3024 130.857 51.3024 130.785C51.3024 130.725 51.2544 130.677 51.1823 130.677C51.0743 130.677 51.0622 130.713 51.0022 130.917C50.7261 131.901 50.2698 132.382 49.8016 132.382C49.6815 132.382 49.4894 132.37 49.4894 131.985C49.4894 131.685 49.6215 131.325 49.6935 131.157C49.9336 130.497 50.4379 129.152 50.4379 128.467C50.4379 127.747 50.0177 127.207 49.1052 127.207C48.0366 127.207 47.4723 127.963 47.2562 128.263C47.2201 127.579 46.7279 127.207 46.1996 127.207C45.8154 127.207 45.5512 127.435 45.3471 127.843C45.131 128.275 44.9629 128.996 44.9629 129.044C44.9629 129.092 45.0109 129.152 45.095 129.152C45.191 129.152 45.203 129.14 45.2751 128.864C45.4672 128.131 45.6833 127.447 46.1636 127.447C46.4397 127.447 46.5358 127.639 46.5358 127.999C46.5358 128.263 46.4157 128.732 46.3316 129.104L45.9955 130.4C45.9474 130.629 45.8154 131.169 45.7553 131.385C45.6713 131.697 45.5392 132.262 45.5392 132.322C45.5392 132.49 45.6713 132.622 45.8514 132.622C45.9955 132.622 46.1636 132.55 46.2596 132.37C46.2836 132.31 46.3917 131.889 46.4517 131.649L46.7159 130.569L47.1121 128.984Z" fill="#BC4D4D"/>
<path d="M55.5585 135.419C55.5585 135.383 55.5585 135.359 55.3544 135.155C54.1537 133.942 53.4814 131.961 53.4814 129.512C53.4814 127.183 54.0457 125.178 55.4384 123.761C55.5585 123.653 55.5585 123.629 55.5585 123.593C55.5585 123.521 55.4985 123.497 55.4505 123.497C55.2944 123.497 54.3098 124.361 53.7215 125.538C53.1092 126.751 52.833 128.035 52.833 129.512C52.833 130.581 53.0011 132.009 53.6254 133.294C54.3338 134.735 55.3184 135.515 55.4505 135.515C55.4985 135.515 55.5585 135.491 55.5585 135.419Z" fill="#BC4D4D"/>
<path d="M59.3378 127.975H60.6946C60.3704 129.32 60.1663 130.196 60.1663 131.157C60.1663 131.325 60.1663 132.622 60.6586 132.622C60.9107 132.622 61.1268 132.394 61.1268 132.189C61.1268 132.129 61.1268 132.105 61.0428 131.925C60.7186 131.097 60.7186 130.064 60.7186 129.98C60.7186 129.908 60.7186 129.056 60.9707 127.975H62.3155C62.4716 127.975 62.8678 127.975 62.8678 127.591C62.8678 127.327 62.6396 127.327 62.4235 127.327H58.4733C58.1972 127.327 57.789 127.327 57.2367 127.915C56.9245 128.263 56.5403 128.9 56.5403 128.972C56.5403 129.044 56.6003 129.068 56.6724 129.068C56.7564 129.068 56.7684 129.032 56.8284 128.96C57.4528 127.975 58.0771 127.975 58.3773 127.975H59.0617C58.7975 128.876 58.4974 129.92 57.5128 132.021C57.4168 132.214 57.4168 132.238 57.4168 132.31C57.4168 132.562 57.6329 132.622 57.7409 132.622C58.0891 132.622 58.1852 132.31 58.3293 131.805C58.5214 131.193 58.5214 131.169 58.6414 130.689L59.3378 127.975Z" fill="#BC4D4D"/>
<path d="M66.0654 130.1C66.2695 130.136 66.5936 130.208 66.6657 130.22C66.8218 130.268 67.3621 130.461 67.3621 131.037C67.3621 131.409 67.0259 132.382 65.6331 132.382C65.381 132.382 64.4805 132.346 64.2404 131.685C64.7206 131.745 64.9607 131.373 64.9607 131.109C64.9607 130.857 64.7927 130.725 64.5525 130.725C64.2884 130.725 63.9402 130.929 63.9402 131.469C63.9402 132.177 64.6606 132.622 65.6211 132.622C67.4461 132.622 67.9864 131.277 67.9864 130.653C67.9864 130.473 67.9864 130.136 67.6022 129.752C67.302 129.464 67.0139 129.404 66.3655 129.272C66.0413 129.2 65.5251 129.092 65.5251 128.551C65.5251 128.311 65.7412 127.447 66.8818 127.447C67.3861 127.447 67.8784 127.639 67.9984 128.071C67.4701 128.071 67.4461 128.527 67.4461 128.539C67.4461 128.792 67.6742 128.864 67.7823 128.864C67.9504 128.864 68.2866 128.732 68.2866 128.227C68.2866 127.723 67.8303 127.207 66.8938 127.207C65.3209 127.207 64.9007 128.443 64.9007 128.936C64.9007 129.848 65.7892 130.04 66.0654 130.1Z" fill="#BC4D4D"/>
<path d="M72.2514 129.512C72.2514 128.6 72.1313 127.111 71.4589 125.718C70.7506 124.277 69.766 123.497 69.6339 123.497C69.5859 123.497 69.5259 123.521 69.5259 123.593C69.5259 123.629 69.5259 123.653 69.73 123.857C70.9307 125.07 71.603 127.051 71.603 129.5C71.603 131.829 71.0387 133.834 69.6459 135.251C69.5259 135.359 69.5259 135.383 69.5259 135.419C69.5259 135.491 69.5859 135.515 69.6339 135.515C69.79 135.515 70.7746 134.651 71.3629 133.474C71.9752 132.25 72.2514 130.953 72.2514 129.512Z" fill="#BC4D4D"/>
<path d="M76.1752 130.1C76.3793 130.136 76.7035 130.208 76.7756 130.22C76.9316 130.268 77.4719 130.461 77.4719 131.037C77.4719 131.409 77.1357 132.382 75.743 132.382C75.4908 132.382 74.5903 132.346 74.3502 131.685C74.8305 131.745 75.0706 131.373 75.0706 131.109C75.0706 130.857 74.9025 130.725 74.6624 130.725C74.3982 130.725 74.05 130.929 74.05 131.469C74.05 132.177 74.7704 132.622 75.731 132.622C77.556 132.622 78.0963 131.277 78.0963 130.653C78.0963 130.473 78.0963 130.136 77.7121 129.752C77.4119 129.464 77.1237 129.404 76.4754 129.272C76.1512 129.2 75.6349 129.092 75.6349 128.551C75.6349 128.311 75.851 127.447 76.9917 127.447C77.4959 127.447 77.9882 127.639 78.1083 128.071C77.58 128.071 77.556 128.527 77.556 128.539C77.556 128.792 77.7841 128.864 77.8922 128.864C78.0603 128.864 78.3964 128.732 78.3964 128.227C78.3964 127.723 77.9402 127.207 77.0037 127.207C75.4308 127.207 75.0106 128.443 75.0106 128.936C75.0106 129.848 75.8991 130.04 76.1752 130.1Z" fill="#BC4D4D"/>
<path d="M82.3733 130.785C82.3733 130.725 82.3252 130.677 82.2532 130.677C82.1451 130.677 82.1331 130.713 82.0731 130.917C81.7609 132.009 81.2686 132.382 80.8724 132.382C80.7283 132.382 80.5603 132.346 80.5603 131.985C80.5603 131.661 80.7043 131.301 80.8364 130.941L81.6769 128.708C81.7129 128.612 81.7969 128.395 81.7969 128.167C81.7969 127.663 81.4367 127.207 80.8484 127.207C79.7438 127.207 79.2996 128.948 79.2996 129.044C79.2996 129.092 79.3476 129.152 79.4316 129.152C79.5397 129.152 79.5517 129.104 79.5997 128.936C79.8879 127.927 80.3441 127.447 80.8124 127.447C80.9205 127.447 81.1246 127.459 81.1246 127.843C81.1246 128.155 80.9685 128.552 80.8724 128.816L80.032 131.049C79.9599 131.241 79.8879 131.433 79.8879 131.649C79.8879 132.19 80.2601 132.622 80.8364 132.622C81.941 132.622 82.3733 130.869 82.3733 130.785ZM82.2772 125.01C82.2772 124.829 82.1331 124.613 81.869 124.613C81.5928 124.613 81.2807 124.877 81.2807 125.19C81.2807 125.49 81.5328 125.586 81.6769 125.586C82.001 125.586 82.2772 125.274 82.2772 125.01Z" fill="#BC4D4D"/>
<path d="M85.4592 128.984C85.4833 128.912 85.7834 128.311 86.2277 127.927C86.5398 127.639 86.9481 127.447 87.4163 127.447C87.8966 127.447 88.0647 127.807 88.0647 128.287C88.0647 128.972 87.5724 130.34 87.3323 130.989C87.2242 131.277 87.1642 131.433 87.1642 131.649C87.1642 132.189 87.5364 132.622 88.1127 132.622C89.2293 132.622 89.6495 130.857 89.6495 130.785C89.6495 130.725 89.6015 130.677 89.5295 130.677C89.4214 130.677 89.4094 130.713 89.3494 130.917C89.0732 131.901 88.617 132.382 88.1487 132.382C88.0287 132.382 87.8366 132.37 87.8366 131.985C87.8366 131.685 87.9686 131.325 88.0407 131.157C88.2808 130.497 88.7851 129.152 88.7851 128.467C88.7851 127.747 88.3648 127.207 87.4523 127.207C86.3838 127.207 85.8194 127.963 85.6033 128.263C85.5673 127.579 85.075 127.207 84.5467 127.207C84.1625 127.207 83.8984 127.435 83.6943 127.843C83.4782 128.275 83.3101 128.996 83.3101 129.044C83.3101 129.092 83.3581 129.152 83.4421 129.152C83.5382 129.152 83.5502 129.14 83.6222 128.864C83.8143 128.131 84.0305 127.447 84.5107 127.447C84.7869 127.447 84.8829 127.639 84.8829 127.999C84.8829 128.263 84.7629 128.732 84.6788 129.104L84.3426 130.4C84.2946 130.629 84.1625 131.169 84.1025 131.385C84.0184 131.697 83.8864 132.262 83.8864 132.322C83.8864 132.49 84.0184 132.622 84.1985 132.622C84.3426 132.622 84.5107 132.55 84.6068 132.37C84.6308 132.31 84.7388 131.889 84.7989 131.649L85.063 130.569L85.4592 128.984Z" fill="#BC4D4D"/>
<path d="M93.9057 135.419C93.9057 135.383 93.9057 135.359 93.7016 135.155C92.5009 133.942 91.8285 131.961 91.8285 129.512C91.8285 127.183 92.3928 125.178 93.7856 123.761C93.9057 123.653 93.9057 123.629 93.9057 123.593C93.9057 123.521 93.8456 123.497 93.7976 123.497C93.6415 123.497 92.657 124.361 92.0687 125.538C91.4563 126.751 91.1802 128.035 91.1802 129.512C91.1802 130.581 91.3483 132.009 91.9726 133.294C92.681 134.735 93.6655 135.515 93.7976 135.515C93.8456 135.515 93.9057 135.491 93.9057 135.419Z" fill="#BC4D4D"/>
<path d="M99.8584 130.485H99.5943C99.5582 130.689 99.4622 131.349 99.3421 131.541C99.2581 131.649 98.5737 131.649 98.2135 131.649H95.9923C96.3165 131.373 97.0489 130.605 97.361 130.316C99.186 128.636 99.8584 128.011 99.8584 126.823C99.8584 125.442 98.7658 124.517 97.373 124.517C95.9803 124.517 95.1638 125.706 95.1638 126.739C95.1638 127.351 95.6921 127.351 95.7281 127.351C95.9803 127.351 96.2924 127.171 96.2924 126.787C96.2924 126.45 96.0643 126.222 95.7281 126.222C95.6201 126.222 95.5961 126.222 95.56 126.234C95.7882 125.418 96.4365 124.865 97.2169 124.865C98.2375 124.865 98.8619 125.718 98.8619 126.823C98.8619 127.843 98.2735 128.732 97.5892 129.5L95.1638 132.214V132.502H99.5462L99.8584 130.485Z" fill="#BC4D4D"/>
<path d="M103.564 127.975H104.92C104.596 129.32 104.392 130.196 104.392 131.157C104.392 131.325 104.392 132.622 104.884 132.622C105.137 132.622 105.353 132.394 105.353 132.189C105.353 132.129 105.353 132.105 105.269 131.925C104.944 131.097 104.944 130.064 104.944 129.98C104.944 129.908 104.944 129.056 105.197 127.975H106.541C106.697 127.975 107.094 127.975 107.094 127.591C107.094 127.327 106.865 127.327 106.649 127.327H102.699C102.423 127.327 102.015 127.327 101.462 127.915C101.15 128.263 100.766 128.9 100.766 128.972C100.766 129.044 100.826 129.068 100.898 129.068C100.982 129.068 100.994 129.032 101.054 128.96C101.679 127.975 102.303 127.975 102.603 127.975H103.288C103.023 128.876 102.723 129.92 101.739 132.021C101.643 132.214 101.643 132.238 101.643 132.31C101.643 132.562 101.859 132.622 101.967 132.622C102.315 132.622 102.411 132.31 102.555 131.805C102.747 131.193 102.747 131.169 102.867 130.689L103.564 127.975Z" fill="#BC4D4D"/>
<path d="M109.967 127.675H111.071C111.3 127.675 111.42 127.675 111.42 127.459C111.42 127.327 111.348 127.327 111.107 127.327H110.051L110.495 125.574C110.543 125.406 110.543 125.382 110.543 125.298C110.543 125.106 110.387 124.998 110.231 124.998C110.135 124.998 109.859 125.034 109.763 125.418L109.294 127.327H108.166C107.926 127.327 107.818 127.327 107.818 127.555C107.818 127.675 107.902 127.675 108.13 127.675H109.198L108.406 130.845C108.31 131.265 108.274 131.385 108.274 131.541C108.274 132.105 108.67 132.622 109.342 132.622C110.555 132.622 111.203 130.869 111.203 130.785C111.203 130.713 111.155 130.677 111.083 130.677C111.059 130.677 111.011 130.677 110.987 130.725C110.975 130.737 110.963 130.749 110.879 130.941C110.627 131.541 110.075 132.382 109.378 132.382C109.018 132.382 108.994 132.081 108.994 131.817C108.994 131.805 108.994 131.577 109.03 131.433L109.967 127.675Z" fill="#BC4D4D"/>
<path d="M115.185 129.512C115.185 128.6 115.065 127.111 114.392 125.718C113.684 124.277 112.699 123.497 112.567 123.497C112.519 123.497 112.459 123.521 112.459 123.593C112.459 123.629 112.459 123.653 112.663 123.857C113.864 125.07 114.536 127.051 114.536 129.5C114.536 131.829 113.972 133.834 112.579 135.251C112.459 135.359 112.459 135.383 112.459 135.419C112.459 135.491 112.519 135.515 112.567 135.515C112.723 135.515 113.708 134.651 114.296 133.474C114.909 132.25 115.185 130.953 115.185 129.512Z" fill="#BC4D4D"/>
<path d="M61.4099 142.495C61.1818 142.495 61.0737 142.495 60.9056 142.639C60.8336 142.699 60.7015 142.879 60.7015 143.071C60.7015 143.312 60.8816 143.456 61.1097 143.456C61.3979 143.456 61.722 143.216 61.722 142.735C61.722 142.159 61.1697 141.715 60.3413 141.715C58.7684 141.715 57.1956 143.432 57.1956 145.137C57.1956 146.181 57.8439 147.13 59.0686 147.13C60.7015 147.13 61.7341 145.857 61.7341 145.701C61.7341 145.629 61.662 145.569 61.614 145.569C61.578 145.569 61.566 145.581 61.4579 145.689C60.6895 146.709 59.5489 146.89 59.0926 146.89C58.2641 146.89 58 146.169 58 145.569C58 145.149 58.2041 143.984 58.6364 143.168C58.9485 142.603 59.5969 141.955 60.3533 141.955C60.5094 141.955 61.1697 141.979 61.4099 142.495Z" fill="#BC4D4D"/>
<path d="M67.2498 143.708C67.2498 142.567 66.5054 141.715 65.4128 141.715C63.828 141.715 62.2671 143.444 62.2671 145.137C62.2671 146.277 63.0115 147.13 64.1041 147.13C65.701 147.13 67.2498 145.401 67.2498 143.708ZM64.1161 146.89C63.5158 146.89 63.0715 146.409 63.0715 145.569C63.0715 145.017 63.3597 143.792 63.6959 143.192C64.2362 142.267 64.9085 141.955 65.4008 141.955C65.9891 141.955 66.4454 142.435 66.4454 143.276C66.4454 143.756 66.1933 145.041 65.737 145.773C65.2447 146.577 64.5844 146.89 64.1161 146.89Z" fill="#BC4D4D"/>
<path d="M70.164 144.608C70.3681 144.644 70.6923 144.716 70.7643 144.728C70.9204 144.776 71.4607 144.969 71.4607 145.545C71.4607 145.917 71.1245 146.89 69.7318 146.89C69.4796 146.89 68.5791 146.854 68.339 146.193C68.8192 146.253 69.0594 145.881 69.0594 145.617C69.0594 145.365 68.8913 145.233 68.6512 145.233C68.387 145.233 68.0388 145.437 68.0388 145.977C68.0388 146.685 68.7592 147.13 69.7197 147.13C71.5447 147.13 72.085 145.785 72.085 145.161C72.085 144.981 72.085 144.644 71.7008 144.26C71.4007 143.972 71.1125 143.912 70.4642 143.78C70.14 143.708 69.6237 143.6 69.6237 143.059C69.6237 142.819 69.8398 141.955 70.9804 141.955C71.4847 141.955 71.977 142.147 72.0971 142.579C71.5688 142.579 71.5447 143.035 71.5447 143.047C71.5447 143.3 71.7729 143.372 71.8809 143.372C72.049 143.372 72.3852 143.24 72.3852 142.735C72.3852 142.231 71.929 141.715 70.9924 141.715C69.4196 141.715 68.9993 142.951 68.9993 143.444C68.9993 144.356 69.8878 144.548 70.164 144.608Z" fill="#BC4D4D"/>
<path d="M76.8666 149.927C76.8666 149.891 76.8666 149.867 76.6625 149.663C75.4618 148.45 74.7895 146.469 74.7895 144.02C74.7895 141.691 75.3538 139.686 76.7465 138.269C76.8666 138.161 76.8666 138.137 76.8666 138.101C76.8666 138.029 76.8066 138.005 76.7586 138.005C76.6025 138.005 75.6179 138.869 75.0296 140.046C74.4173 141.258 74.1411 142.543 74.1411 144.02C74.1411 145.089 74.3092 146.517 74.9336 147.802C75.6419 149.243 76.6265 150.023 76.7586 150.023C76.8066 150.023 76.8666 149.999 76.8666 149.927Z" fill="#BC4D4D"/>
<path d="M80.6459 142.483H82.0027C81.6785 143.828 81.4744 144.704 81.4744 145.665C81.4744 145.833 81.4744 147.13 81.9667 147.13C82.2188 147.13 82.4349 146.902 82.4349 146.697C82.4349 146.637 82.4349 146.613 82.3509 146.433C82.0267 145.605 82.0267 144.572 82.0267 144.488C82.0267 144.416 82.0267 143.564 82.2788 142.483H83.6236C83.7797 142.483 84.1759 142.483 84.1759 142.099C84.1759 141.835 83.9477 141.835 83.7316 141.835H79.7815C79.5053 141.835 79.0971 141.835 78.5448 142.423C78.2326 142.771 77.8484 143.408 77.8484 143.48C77.8484 143.552 77.9084 143.576 77.9805 143.576C78.0645 143.576 78.0765 143.54 78.1365 143.468C78.7609 142.483 79.3852 142.483 79.6854 142.483H80.3698C80.1056 143.384 79.8055 144.428 78.8209 146.529C78.7249 146.721 78.7249 146.746 78.7249 146.818C78.7249 147.07 78.941 147.13 79.0491 147.13C79.3972 147.13 79.4933 146.818 79.6374 146.313C79.8295 145.701 79.8295 145.677 79.9495 145.197L80.6459 142.483Z" fill="#BC4D4D"/>
<path d="M87.3735 144.608C87.5776 144.644 87.9018 144.716 87.9738 144.728C88.1299 144.776 88.6702 144.969 88.6702 145.545C88.6702 145.917 88.334 146.89 86.9412 146.89C86.6891 146.89 85.7886 146.854 85.5485 146.193C86.0287 146.253 86.2689 145.881 86.2689 145.617C86.2689 145.365 86.1008 145.233 85.8606 145.233C85.5965 145.233 85.2483 145.437 85.2483 145.977C85.2483 146.685 85.9687 147.13 86.9292 147.13C88.7542 147.13 89.2945 145.785 89.2945 145.161C89.2945 144.981 89.2945 144.644 88.9103 144.26C88.6101 143.972 88.322 143.912 87.6736 143.78C87.3494 143.708 86.8332 143.6 86.8332 143.059C86.8332 142.819 87.0493 141.955 88.1899 141.955C88.6942 141.955 89.1865 142.147 89.3065 142.579C88.7782 142.579 88.7542 143.035 88.7542 143.047C88.7542 143.3 88.9823 143.372 89.0904 143.372C89.2585 143.372 89.5947 143.24 89.5947 142.735C89.5947 142.231 89.1384 141.715 88.2019 141.715C86.6291 141.715 86.2088 142.951 86.2088 143.444C86.2088 144.356 87.0973 144.548 87.3735 144.608Z" fill="#BC4D4D"/>
<path d="M93.5595 144.02C93.5595 143.108 93.4394 141.619 92.767 140.226C92.0587 138.785 91.0741 138.005 90.942 138.005C90.894 138.005 90.834 138.029 90.834 138.101C90.834 138.137 90.834 138.161 91.0381 138.365C92.2388 139.578 92.9111 141.559 92.9111 144.008C92.9111 146.337 92.3468 148.342 90.9541 149.759C90.834 149.867 90.834 149.891 90.834 149.927C90.834 149.999 90.894 150.023 90.942 150.023C91.0981 150.023 92.0827 149.159 92.671 147.982C93.2833 146.758 93.5595 145.461 93.5595 144.02Z" fill="#BC4D4D"/>
<path d="M119.624 129.6H120.453V108H116.455V108.828H119.624V129.6Z" fill="#BC4D4D"/>
<path d="M119.624 150.372H116.455V151.2H120.453V129.6H119.624V150.372Z" fill="#BC4D4D"/>
<path d="M1 151.212H5.73728V150.221H1.99068V108.991H5.73728V108H1V151.212Z" fill="#BC4D4D"/>
<path d="M10.5934 115.845H12.2505C12.5928 115.845 12.7729 115.845 12.7729 115.52C12.7729 115.322 12.6648 115.322 12.3046 115.322H10.7195L11.3859 112.692C11.458 112.44 11.458 112.404 11.458 112.278C11.458 111.99 11.2238 111.828 10.9896 111.828C10.8455 111.828 10.4313 111.882 10.2872 112.458L9.58467 115.322H7.8915C7.53125 115.322 7.36914 115.322 7.36914 115.664C7.36914 115.845 7.49523 115.845 7.83746 115.845H9.44057L8.25175 120.6C8.10765 121.23 8.05361 121.41 8.05361 121.645C8.05361 122.491 8.64803 123.266 9.65672 123.266C11.476 123.266 12.4487 120.636 12.4487 120.51C12.4487 120.402 12.3766 120.348 12.2685 120.348C12.2325 120.348 12.1605 120.348 12.1244 120.42C12.1064 120.438 12.0884 120.456 11.9623 120.744C11.5841 121.645 10.7555 122.905 9.71076 122.905C9.17039 122.905 9.13436 122.455 9.13436 122.059C9.13436 122.041 9.13436 121.699 9.1884 121.482L10.5934 115.845Z" fill="#BC4D4D"/>
<path d="M10.1103 141.248C10.4165 141.302 10.9029 141.41 11.0109 141.428C11.2451 141.5 12.0557 141.789 12.0557 142.653C12.0557 143.211 11.5513 144.671 9.46187 144.671C9.08361 144.671 7.73268 144.616 7.37243 143.626C8.09293 143.716 8.45318 143.157 8.45318 142.761C8.45318 142.383 8.201 142.185 7.84075 142.185C7.44448 142.185 6.92212 142.491 6.92212 143.302C6.92212 144.364 8.00287 145.031 9.44386 145.031C12.1818 145.031 12.9923 143.013 12.9923 142.077C12.9923 141.807 12.9923 141.302 12.4159 140.726C11.9656 140.293 11.5333 140.203 10.5606 140.005C10.0743 139.897 9.29976 139.735 9.29976 138.925C9.29976 138.564 9.62399 137.267 11.3352 137.267C12.0917 137.267 12.8302 137.556 13.0103 138.204C12.2178 138.204 12.1818 138.889 12.1818 138.907C12.1818 139.285 12.524 139.393 12.6861 139.393C12.9383 139.393 13.4426 139.195 13.4426 138.438C13.4426 137.682 12.7582 136.907 11.3532 136.907C8.99355 136.907 8.36311 138.762 8.36311 139.501C8.36311 140.87 9.69604 141.158 10.1103 141.248Z" fill="#BC4D4D"/>
<path d="M18.3101 150.221H14.5635V151.212H19.3008V108H14.5635V108.991H18.3101V150.221Z" fill="#BC4D4D"/>
<path d="M10 39.5C15.2467 39.5 19.5 35.2467 19.5 30C19.5 24.7533 15.2467 20.5 10 20.5C4.75329 20.5 0.5 24.7533 0.5 30C0.5 35.2467 4.75329 39.5 10 39.5Z" fill="#F5F99E" stroke="#BC4D4D"/>
<path d="M10 79.5C15.2467 79.5 19.5 75.2467 19.5 70C19.5 64.7533 15.2467 60.5 10 60.5C4.75329 60.5 0.5 64.7533 0.5 70C0.5 75.2467 4.75329 79.5 10 79.5Z" fill="#F5F99E" stroke="#BC4D4D"/>
<path d="M364 19.5C369.247 19.5 373.5 15.2467 373.5 10C373.5 4.75329 369.247 0.5 364 0.5C358.753 0.5 354.5 4.75329 354.5 10C354.5 15.2467 358.753 19.5 364 19.5Z" fill="#F5F99E" stroke="#BC4D4D"/>
<path d="M364 59.5C369.247 59.5 373.5 55.2467 373.5 50C373.5 44.7533 369.247 40.5 364 40.5C358.753 40.5 354.5 44.7533 354.5 50C354.5 55.2467 358.753 59.5 364 59.5Z" fill="#F5F99E" stroke="#BC4D4D"/>
<path d="M364 99.5C369.247 99.5 373.5 95.2467 373.5 90C373.5 84.7533 369.247 80.5 364 80.5C358.753 80.5 354.5 84.7533 354.5 90C354.5 95.2467 358.753 99.5 364 99.5Z" fill="#F5F99E" stroke="#BC4D4D"/>
<path d="M142 19.5C147.247 19.5 151.5 15.2467 151.5 10C151.5 4.75329 147.247 0.5 142 0.5C136.753 0.5 132.5 4.75329 132.5 10C132.5 15.2467 136.753 19.5 142 19.5Z" fill="#F5F99E" stroke="#BC4D4D"/>
<path d="M142 59.5C147.247 59.5 151.5 55.2467 151.5 50C151.5 44.7533 147.247 40.5 142 40.5C136.753 40.5 132.5 44.7533 132.5 50C132.5 55.2467 136.753 59.5 142 59.5Z" fill="#F5F99E" stroke="#BC4D4D"/>
<path d="M142 99.5C147.247 99.5 151.5 95.2467 151.5 90C151.5 84.7533 147.247 80.5 142 80.5C136.753 80.5 132.5 84.7533 132.5 90C132.5 95.2467 136.753 99.5 142 99.5Z" fill="#F5F99E" stroke="#BC4D4D"/>
<path d="M76 19.5C81.2467 19.5 85.5 15.2467 85.5 10C85.5 4.75329 81.2467 0.5 76 0.5C70.7533 0.5 66.5 4.75329 66.5 10C66.5 15.2467 70.7533 19.5 76 19.5Z" fill="#F5F99E" stroke="#BC4D4D"/>
<path d="M76 59.5C81.2467 59.5 85.5 55.2467 85.5 50C85.5 44.7533 81.2467 40.5 76 40.5C70.7533 40.5 66.5 44.7533 66.5 50C66.5 55.2467 70.7533 59.5 76 59.5Z" fill="#F5F99E" stroke="#BC4D4D"/>
<path d="M76 99.5C81.2467 99.5 85.5 95.2467 85.5 90C85.5 84.7533 81.2467 80.5 76 80.5C70.7533 80.5 66.5 84.7533 66.5 90C66.5 95.2467 70.7533 99.5 76 99.5Z" fill="#F5F99E" stroke="#BC4D4D"/>
<path d="M272 19.5C277.247 19.5 281.5 15.2467 281.5 10C281.5 4.75329 277.247 0.5 272 0.5C266.753 0.5 262.5 4.75329 262.5 10C262.5 15.2467 266.753 19.5 272 19.5Z" fill="#F5F99E" stroke="#BC4D4D"/>
<path d="M272 59.5C277.247 59.5 281.5 55.2467 281.5 50C281.5 44.7533 277.247 40.5 272 40.5C266.753 40.5 262.5 44.7533 262.5 50C262.5 55.2467 266.753 59.5 272 59.5Z" fill="#F5F99E" stroke="#BC4D4D"/>
<path d="M272 99.5C277.247 99.5 281.5 95.2467 281.5 90C281.5 84.7533 277.247 80.5 272 80.5C266.753 80.5 262.5 84.7533 262.5 90C262.5 95.2467 266.753 99.5 272 99.5Z" fill="#F5F99E" stroke="#BC4D4D"/>
<path d="M207 19.5C212.247 19.5 216.5 15.2467 216.5 10C216.5 4.75329 212.247 0.5 207 0.5C201.753 0.5 197.5 4.75329 197.5 10C197.5 15.2467 201.753 19.5 207 19.5Z" fill="#F5F99E" stroke="#BC4D4D"/>
<path d="M207 59.5C212.247 59.5 216.5 55.2467 216.5 50C216.5 44.7533 212.247 40.5 207 40.5C201.753 40.5 197.5 44.7533 197.5 50C197.5 55.2467 201.753 59.5 207 59.5Z" fill="#F5F99E" stroke="#BC4D4D"/>
<path d="M207 99.5C212.247 99.5 216.5 95.2467 216.5 90C216.5 84.7533 212.247 80.5 207 80.5C201.753 80.5 197.5 84.7533 197.5 90C197.5 95.2467 201.753 99.5 207 99.5Z" fill="#F5F99E" stroke="#BC4D4D"/>
<path d="M310.747 49.8826C310.747 49.3602 310.315 49 309.883 49C309.36 49 309 49.4323 309 49.8646C309 50.3869 309.432 50.7472 309.865 50.7472C310.387 50.7472 310.747 50.3149 310.747 49.8826Z" fill="#BC4D4D"/>
<path d="M318.648 49.8826C318.648 49.3602 318.216 49 317.784 49C317.261 49 316.901 49.4323 316.901 49.8646C316.901 50.3869 317.333 50.7472 317.766 50.7472C318.288 50.7472 318.648 50.3149 318.648 49.8826Z" fill="#BC4D4D"/>
<path d="M326.55 49.8826C326.55 49.3602 326.117 49 325.685 49C325.163 49 324.802 49.4323 324.802 49.8646C324.802 50.3869 325.235 50.7472 325.667 50.7472C326.189 50.7472 326.55 50.3149 326.55 49.8826Z" fill="#BC4D4D"/>
<path d="M304.354 50.3535C304.549 50.1582 304.549 49.8416 304.354 49.6464L301.172 46.4644C300.976 46.2691 300.66 46.2691 300.464 46.4644C300.269 46.6597 300.269 46.9762 300.464 47.1715L303.293 49.9999L300.464 52.8284C300.269 53.0236 300.269 53.3402 300.464 53.5355C300.66 53.7307 300.976 53.7307 301.172 53.5355L304.354 50.3535ZM284 50.4999H304V49.4999H284V50.4999Z" fill="#BC4D4D"/>
<path d="M351.354 50.3535C351.549 50.1582 351.549 49.8416 351.354 49.6464L348.172 46.4644C347.976 46.2691 347.66 46.2691 347.464 46.4644C347.269 46.6597 347.269 46.9762 347.464 47.1715L350.293 49.9999L347.464 52.8284C347.269 53.0236 347.269 53.3402 347.464 53.5355C347.66 53.7307 347.976 53.7307 348.172 53.5355L351.354 50.3535ZM331 50.4999H351V49.4999H331V50.4999Z" fill="#BC4D4D"/>
<path d="M310.747 9.88255C310.747 9.36019 310.315 8.99994 309.883 8.99994C309.36 8.99994 309 9.43224 309 9.86454C309 10.3869 309.432 10.7471 309.865 10.7471C310.387 10.7471 310.747 10.3148 310.747 9.88255Z" fill="#BC4D4D"/>
<path d="M318.648 9.88255C318.648 9.36019 318.216 8.99994 317.784 8.99994C317.261 8.99994 316.901 9.43224 316.901 9.86454C316.901 10.3869 317.333 10.7471 317.766 10.7471C318.288 10.7471 318.648 10.3148 318.648 9.88255Z" fill="#BC4D4D"/>
<path d="M326.55 9.88255C326.55 9.36019 326.117 8.99994 325.685 8.99994C325.163 8.99994 324.802 9.43224 324.802 9.86454C324.802 10.3869 325.235 10.7471 325.667 10.7471C326.189 10.7471 326.55 10.3148 326.55 9.88255Z" fill="#BC4D4D"/>
<path d="M304.354 10.3535C304.549 10.1582 304.549 9.84165 304.354 9.64639L301.172 6.46441C300.976 6.26914 300.66 6.26914 300.464 6.46441C300.269 6.65967 300.269 6.97625 300.464 7.17151L303.293 9.99994L300.464 12.8284C300.269 13.0236 300.269 13.3402 300.464 13.5355C300.66 13.7307 300.976 13.7307 301.172 13.5355L304.354 10.3535ZM284 10.4999H304V9.49994H284V10.4999Z" fill="#BC4D4D"/>
<path d="M351.354 10.3535C351.549 10.1582 351.549 9.84165 351.354 9.64639L348.172 6.46441C347.976 6.26914 347.66 6.26914 347.464 6.46441C347.269 6.65967 347.269 6.97625 347.464 7.17151L350.293 9.99994L347.464 12.8284C347.269 13.0236 347.269 13.3402 347.464 13.5355C347.66 13.7307 347.976 13.7307 348.172 13.5355L351.354 10.3535ZM331 10.4999H351V9.49994H331V10.4999Z" fill="#BC4D4D"/>
<path d="M310.672 89.5646C310.672 89.0422 310.24 88.682 309.807 88.682C309.285 88.682 308.925 89.1143 308.925 89.5466C308.925 90.0689 309.357 90.4292 309.789 90.4292C310.312 90.4292 310.672 89.9969 310.672 89.5646Z" fill="#BC4D4D"/>
<path d="M318.573 89.5646C318.573 89.0422 318.141 88.682 317.709 88.682C317.186 88.682 316.826 89.1143 316.826 89.5466C316.826 90.0689 317.258 90.4292 317.691 90.4292C318.213 90.4292 318.573 89.9969 318.573 89.5646Z" fill="#BC4D4D"/>
<path d="M326.475 89.5646C326.475 89.0422 326.042 88.682 325.61 88.682C325.088 88.682 324.727 89.1143 324.727 89.5466C324.727 90.0689 325.16 90.4292 325.592 90.4292C326.114 90.4292 326.475 89.9969 326.475 89.5646Z" fill="#BC4D4D"/>
<path d="M304.278 90.0355C304.474 89.8402 304.474 89.5237 304.278 89.3284L301.096 86.1464C300.901 85.9511 300.585 85.9511 300.389 86.1464C300.194 86.3417 300.194 86.6583 300.389 86.8535L303.218 89.6819L300.389 92.5104C300.194 92.7056 300.194 93.0222 300.389 93.2175C300.585 93.4127 300.901 93.4127 301.096 93.2175L304.278 90.0355ZM283.925 90.1819H303.925V89.1819H283.925V90.1819Z" fill="#BC4D4D"/>
<path d="M351.278 90.0355C351.474 89.8402 351.474 89.5237 351.278 89.3284L348.096 86.1464C347.901 85.9511 347.585 85.9511 347.389 86.1464C347.194 86.3417 347.194 86.6583 347.389 86.8535L350.218 89.6819L347.389 92.5104C347.194 92.7056 347.194 93.0222 347.389 93.2175C347.585 93.4127 347.901 93.4127 348.096 93.2175L351.278 90.0355ZM330.925 90.1819H350.925V89.1819H330.925V90.1819Z" fill="#BC4D4D"/>
<path d="M194.278 10.3535C194.474 10.1583 194.474 9.84169 194.278 9.64643L191.096 6.46445C190.901 6.26918 190.585 6.26918 190.389 6.46445C190.194 6.65971 190.194 6.97629 190.389 7.17155L193.218 9.99998L190.389 12.8284C190.194 13.0237 190.194 13.3403 190.389 13.5355C190.585 13.7308 190.901 13.7308 191.096 13.5355L194.278 10.3535ZM154.075 10.5H193.925V9.49998H154.075V10.5Z" fill="#BC4D4D"/>
<path d="M194.278 50.3535C194.474 50.1583 194.474 49.8417 194.278 49.6464L191.096 46.4644C190.901 46.2692 190.585 46.2692 190.389 46.4644C190.194 46.6597 190.194 46.9763 190.389 47.1715L193.218 50L190.389 52.8284C190.194 53.0237 190.194 53.3402 190.389 53.5355C190.585 53.7308 190.901 53.7308 191.096 53.5355L194.278 50.3535ZM154.075 50.5H193.925V49.5H154.075V50.5Z" fill="#BC4D4D"/>
<path d="M194.203 90.0355C194.399 89.8403 194.399 89.5237 194.203 89.3284L191.021 86.1464C190.826 85.9512 190.509 85.9512 190.314 86.1464C190.119 86.3417 190.119 86.6583 190.314 86.8535L193.143 89.682L190.314 92.5104C190.119 92.7057 190.119 93.0222 190.314 93.2175C190.509 93.4128 190.826 93.4128 191.021 93.2175L194.203 90.0355ZM154 90.182H193.85V89.182H154V90.182Z" fill="#BC4D4D"/>
<path d="M128.278 10.3535C128.473 10.1583 128.473 9.84169 128.278 9.64643L125.096 6.46445C124.901 6.26918 124.584 6.26918 124.389 6.46445C124.194 6.65971 124.194 6.97629 124.389 7.17155L127.218 9.99998L124.389 12.8284C124.194 13.0237 124.194 13.3403 124.389 13.5355C124.584 13.7308 124.901 13.7308 125.096 13.5355L128.278 10.3535ZM88.075 10.5H127.925V9.49998H88.075V10.5Z" fill="#BC4D4D"/>
<path d="M128.278 50.3535C128.473 50.1583 128.473 49.8417 128.278 49.6464L125.096 46.4644C124.901 46.2692 124.584 46.2692 124.389 46.4644C124.194 46.6597 124.194 46.9763 124.389 47.1715L127.218 50L124.389 52.8284C124.194 53.0237 124.194 53.3402 124.389 53.5355C124.584 53.7308 124.901 53.7308 125.096 53.5355L128.278 50.3535ZM88.075 50.5H127.925V49.5H88.075V50.5Z" fill="#BC4D4D"/>
<path d="M128.203 90.0355C128.398 89.8403 128.398 89.5237 128.203 89.3284L125.021 86.1464C124.826 85.9512 124.509 85.9512 124.314 86.1464C124.119 86.3417 124.119 86.6583 124.314 86.8535L127.142 89.682L124.314 92.5104C124.119 92.7057 124.119 93.0222 124.314 93.2175C124.509 93.4128 124.826 93.4128 125.021 93.2175L128.203 90.0355ZM87.9998 90.182H127.849V89.182H87.9998V90.182Z" fill="#BC4D4D"/>
<path d="M129.488 17.1092C129.548 16.8397 129.378 16.5724 129.109 16.512L124.718 15.5289C124.448 15.4686 124.181 15.6381 124.12 15.9076C124.06 16.1771 124.23 16.4444 124.499 16.5048L128.402 17.3787L127.529 21.282C127.468 21.5515 127.638 21.8189 127.907 21.8792C128.177 21.9395 128.444 21.77 128.504 21.5005L129.488 17.1092ZM88.2674 43.4222L129.267 17.4222L128.732 16.5777L87.7318 42.5777L88.2674 43.4222Z" fill="#BC4D4D"/>
<path d="M129.488 42.8907C129.548 43.1602 129.378 43.4275 129.109 43.4878L124.718 44.471C124.448 44.5313 124.181 44.3618 124.12 44.0923C124.06 43.8228 124.23 43.5555 124.499 43.4951L128.402 42.6212L127.529 38.7179C127.468 38.4484 127.638 38.181 127.907 38.1207C128.177 38.0604 128.444 38.2299 128.504 38.4994L129.488 42.8907ZM88.2674 16.5777L129.267 42.5777L128.732 43.4222L87.7318 17.4222L88.2674 16.5777Z" fill="#BC4D4D"/>
<path d="M129.46 57.4865C129.52 57.217 129.35 56.9496 129.081 56.8893L124.69 55.9062C124.42 55.8458 124.153 56.0154 124.093 56.2849C124.032 56.5543 124.202 56.8217 124.471 56.882L128.375 57.7559L127.501 61.6593C127.44 61.9288 127.61 62.1961 127.879 62.2564C128.149 62.3168 128.416 62.1472 128.477 61.8778L129.46 57.4865ZM88.2395 83.7995L129.24 57.7995L128.704 56.955L87.704 82.955L88.2395 83.7995Z" fill="#BC4D4D"/>
<path d="M129.46 83.268C129.52 83.5374 129.35 83.8048 129.081 83.8651L124.69 84.8482C124.42 84.9086 124.153 84.739 124.093 84.4696C124.032 84.2001 124.202 83.9327 124.471 83.8724L128.375 82.9985L127.501 79.0951C127.44 78.8257 127.61 78.5583 127.879 78.498C128.149 78.4377 128.416 78.6072 128.477 78.8767L129.46 83.268ZM88.2395 56.9549L129.24 82.9549L128.704 83.7995L87.704 57.7995L88.2395 56.9549Z" fill="#BC4D4D"/>
<path d="M128.886 83.4869C129.155 83.5497 129.424 83.3827 129.487 83.1138L130.51 78.7318C130.573 78.4629 130.406 78.194 130.137 78.1311C129.868 78.0683 129.6 78.2354 129.537 78.5043L128.627 82.3994L124.732 81.4893C124.463 81.4265 124.194 81.5935 124.131 81.8624C124.068 82.1313 124.235 82.4002 124.504 82.4631L128.886 83.4869ZM87.575 17.2638L128.575 83.2638L129.424 82.7362L88.4245 16.7362L87.575 17.2638Z" fill="#BC4D4D"/>
<path d="M128.886 16.5131C129.155 16.4503 129.424 16.6173 129.487 16.8862L130.51 21.2682C130.573 21.5371 130.406 21.806 130.137 21.8689C129.868 21.9317 129.6 21.7646 129.537 21.4957L128.627 17.6006L124.732 18.5107C124.463 18.5735 124.194 18.4065 124.131 18.1376C124.068 17.8687 124.235 17.5998 124.504 17.5369L128.886 16.5131ZM87.575 82.7362L128.575 16.7362L129.424 17.2638L88.4245 83.2638L87.575 82.7362Z" fill="#BC4D4D"/>
<path d="M259.278 10.3535C259.473 10.1583 259.473 9.84169 259.278 9.64643L256.096 6.46445C255.901 6.26918 255.584 6.26918 255.389 6.46445C255.194 6.65971 255.194 6.97629 255.389 7.17155L258.218 9.99998L255.389 12.8284C255.194 13.0237 255.194 13.3403 255.389 13.5355C255.584 13.7308 255.901 13.7308 256.096 13.5355L259.278 10.3535ZM219.075 10.5H258.925V9.49998H219.075V10.5Z" fill="#BC4D4D"/>
<path d="M259.278 50.3535C259.473 50.1583 259.473 49.8417 259.278 49.6464L256.096 46.4644C255.901 46.2692 255.584 46.2692 255.389 46.4644C255.194 46.6597 255.194 46.9763 255.389 47.1715L258.218 50L255.389 52.8284C255.194 53.0237 255.194 53.3402 255.389 53.5355C255.584 53.7308 255.901 53.7308 256.096 53.5355L259.278 50.3535ZM219.075 50.5H258.925V49.5H219.075V50.5Z" fill="#BC4D4D"/>
<path d="M260.488 17.1092C260.548 16.8397 260.378 16.5724 260.109 16.512L255.718 15.5289C255.448 15.4686 255.181 15.6381 255.12 15.9076C255.06 16.1771 255.23 16.4444 255.499 16.5048L259.402 17.3787L258.529 21.282C258.468 21.5515 258.638 21.8189 258.907 21.8792C259.177 21.9395 259.444 21.77 259.504 21.5005L260.488 17.1092ZM219.267 43.4222L260.267 17.4222L259.732 16.5777L218.732 42.5777L219.267 43.4222Z" fill="#BC4D4D"/>
<path d="M260.488 42.8907C260.548 43.1602 260.378 43.4275 260.109 43.4878L255.718 44.471C255.448 44.5313 255.181 44.3618 255.12 44.0923C255.06 43.8228 255.23 43.5555 255.499 43.4951L259.402 42.6212L258.529 38.7179C258.468 38.4484 258.638 38.181 258.907 38.1207C259.177 38.0604 259.444 38.2299 259.504 38.4994L260.488 42.8907ZM219.267 16.5777L260.267 42.5777L259.732 43.4222L218.732 17.4222L219.267 16.5777Z" fill="#BC4D4D"/>
<path d="M259.203 90.0355C259.398 89.8403 259.398 89.5237 259.203 89.3284L256.021 86.1464C255.826 85.9512 255.509 85.9512 255.314 86.1464C255.119 86.3417 255.119 86.6583 255.314 86.8535L258.142 89.682L255.314 92.5104C255.119 92.7057 255.119 93.0222 255.314 93.2175C255.509 93.4128 255.826 93.4128 256.021 93.2175L259.203 90.0355ZM219 90.182H258.849V89.182H219V90.182Z" fill="#BC4D4D"/>
<path d="M260.46 57.4865C260.52 57.217 260.35 56.9496 260.081 56.8893L255.69 55.9062C255.42 55.8458 255.153 56.0154 255.093 56.2849C255.032 56.5543 255.202 56.8217 255.471 56.882L259.375 57.7559L258.501 61.6593C258.44 61.9288 258.61 62.1961 258.879 62.2564C259.149 62.3168 259.416 62.1472 259.477 61.8778L260.46 57.4865ZM219.24 83.7995L260.24 57.7995L259.704 56.955L218.704 82.955L219.24 83.7995Z" fill="#BC4D4D"/>
<path d="M260.46 83.268C260.52 83.5374 260.35 83.8048 260.081 83.8651L255.69 84.8482C255.42 84.9086 255.153 84.739 255.093 84.4696C255.032 84.2001 255.202 83.9327 255.471 83.8724L259.375 82.9985L258.501 79.0951C258.44 78.8257 258.61 78.5583 258.879 78.498C259.149 78.4377 259.416 78.6072 259.477 78.8767L260.46 83.268ZM219.24 56.9549L260.24 82.9549L259.704 83.7995L218.704 57.7995L219.24 56.9549Z" fill="#BC4D4D"/>
<path d="M259.886 83.4869C260.155 83.5497 260.424 83.3827 260.487 83.1138L261.51 78.7318C261.573 78.4629 261.406 78.194 261.137 78.1311C260.868 78.0683 260.6 78.2354 260.537 78.5043L259.627 82.3994L255.732 81.4893C255.463 81.4265 255.194 81.5935 255.131 81.8624C255.068 82.1313 255.235 82.4002 255.504 82.4631L259.886 83.4869ZM218.575 17.2638L259.575 83.2638L260.424 82.7362L219.424 16.7362L218.575 17.2638Z" fill="#BC4D4D"/>
<path d="M259.886 16.5131C260.155 16.4503 260.424 16.6173 260.487 16.8862L261.51 21.2682C261.573 21.5371 261.406 21.806 261.137 21.8689C260.868 21.9317 260.6 21.7646 260.537 21.4957L259.627 17.6006L255.732 18.5107C255.463 18.5735 255.194 18.4065 255.131 18.1376C255.068 17.8687 255.235 17.5998 255.504 17.5369L259.886 16.5131ZM218.575 82.7362L259.575 16.7362L260.424 17.2638L219.424 83.2638L218.575 82.7362Z" fill="#BC4D4D"/>
<path d="M62.4455 13.227C62.5709 12.9809 62.473 12.6798 62.227 12.5545L58.2173 10.5118C57.9712 10.3865 57.6702 10.4843 57.5448 10.7304C57.4195 10.9764 57.5173 11.2775 57.7634 11.4029L61.3275 13.2186L59.5118 16.7827C59.3865 17.0288 59.4843 17.3298 59.7304 17.4552C59.9764 17.5805 60.2775 17.4827 60.4029 17.2366L62.4455 13.227ZM22.1545 26.4755L62.1545 13.4755L61.8455 12.5245L21.8455 25.5245L22.1545 26.4755Z" fill="#BC4D4D"/>
<path d="M62.1773 48.4675C62.4355 48.3696 62.5654 48.0809 62.4675 47.8227L60.8716 43.6152C60.7736 43.357 60.4849 43.2271 60.2267 43.325C59.9685 43.4229 59.8386 43.7116 59.9366 43.9698L61.3552 47.7098L57.6152 49.1284C57.357 49.2264 57.2271 49.5151 57.325 49.7733C57.4229 50.0315 57.7116 50.1614 57.9698 50.0634L62.1773 48.4675ZM21.7948 30.456L61.7948 48.456L62.2052 47.544L22.2052 29.544L21.7948 30.456Z" fill="#BC4D4D"/>
<path d="M63.972 83.4992C64.2477 83.5147 64.4837 83.3038 64.4992 83.0281L64.7516 78.5351C64.7671 78.2594 64.5562 78.0234 64.2805 78.0079C64.0048 77.9924 63.7687 78.2033 63.7532 78.479L63.5288 82.4727L59.5351 82.2484C59.2594 82.2329 59.0234 82.4438 59.0079 82.7196C58.9924 82.9953 59.2033 83.2313 59.479 83.2468L63.972 83.4992ZM21.6272 36.3332L63.6272 83.3332L64.3728 82.6668L22.3728 35.6668L21.6272 36.3332Z" fill="#BC4D4D"/>
<path d="M62.4455 13.227C62.5709 12.9809 62.473 12.6798 62.227 12.5545L58.2173 10.5118C57.9712 10.3865 57.6702 10.4843 57.5448 10.7304C57.4195 10.9764 57.5173 11.2775 57.7634 11.4029L61.3275 13.2186L59.5118 16.7827C59.3865 17.0288 59.4843 17.3298 59.7304 17.4552C59.9764 17.5805 60.2775 17.4827 60.4029 17.2366L62.4455 13.227ZM22.1545 26.4755L62.1545 13.4755L61.8455 12.5245L21.8455 25.5245L22.1545 26.4755Z" fill="#BC4D4D"/>
<path d="M62.4455 87.773C62.5709 88.0191 62.473 88.3202 62.227 88.4455L58.2173 90.4882C57.9712 90.6135 57.6702 90.5157 57.5448 90.2696C57.4195 90.0236 57.5173 89.7225 57.7634 89.5971L61.3275 87.7814L59.5118 84.2173C59.3865 83.9712 59.4843 83.6702 59.7304 83.5448C59.9764 83.4195 60.2775 83.5173 60.4029 83.7634L62.4455 87.773ZM22.1545 74.5245L62.1545 87.5245L61.8455 88.4755L21.8455 75.4755L22.1545 74.5245Z" fill="#BC4D4D"/>
<path d="M62.1773 52.5325C62.4355 52.6304 62.5654 52.9191 62.4675 53.1773L60.8716 57.3848C60.7736 57.643 60.4849 57.7729 60.2267 57.675C59.9685 57.5771 59.8386 57.2884 59.9366 57.0302L61.3552 53.2902L57.6152 51.8716C57.357 51.7736 57.2271 51.4849 57.325 51.2267C57.4229 50.9685 57.7116 50.8386 57.9698 50.9366L62.1773 52.5325ZM21.7948 70.544L61.7948 52.544L62.2052 53.456L22.2052 71.456L21.7948 70.544Z" fill="#BC4D4D"/>
<path d="M63.972 17.5008C64.2477 17.4853 64.4837 17.6962 64.4992 17.9719L64.7516 22.4649C64.7671 22.7406 64.5562 22.9766 64.2805 22.9921C64.0048 23.0076 63.7687 22.7967 63.7532 22.521L63.5288 18.5273L59.5351 18.7516C59.2594 18.7671 59.0234 18.5562 59.0079 18.2804C58.9924 18.0047 59.2033 17.7687 59.479 17.7532L63.972 17.5008ZM21.6272 64.6668L63.6272 17.6668L64.3728 18.3332L22.3728 65.3332L21.6272 64.6668Z" fill="#BC4D4D"/>
<path d="M62.4455 87.773C62.5709 88.0191 62.473 88.3202 62.227 88.4455L58.2173 90.4882C57.9712 90.6135 57.6702 90.5157 57.5448 90.2696C57.4195 90.0236 57.5173 89.7225 57.7634 89.5971L61.3275 87.7814L59.5118 84.2173C59.3865 83.9712 59.4843 83.6702 59.7304 83.5448C59.9764 83.4195 60.2775 83.5173 60.4029 83.7634L62.4455 87.773ZM22.1545 74.5245L62.1545 87.5245L61.8455 88.4755L21.8455 75.4755L22.1545 74.5245Z" fill="#BC4D4D"/>
</svg>
