<svg width="898" height="331" viewBox="0 0 898 331" fill="none" xmlns="http://www.w3.org/2000/svg">
<path d="M4.29129 2H329V328.018L328.673 329H2.65466L2 328.345V2.32733L2.98198 2" fill="#F5F5F5"/>
<path d="M4.29129 2H329V328.018L328.673 329H2.65466L2 328.345V2.32733L2.98198 2" stroke="#F5F5F5" stroke-width="2.66667" stroke-linecap="square"/>
<path d="M6.26018 4H326.56V325.591L326.237 326.56H4.64577L4 325.914V4.32289L4.96865 4" fill="#E1E1F6"/>
<path d="M6.26018 4H326.56V325.591L326.237 326.56H4.64577L4 325.914V4.32289L4.96865 4" stroke="black" stroke-width="2.66667" stroke-linecap="square"/>
<path d="M68.5445 36.4217L6.89868 4.12793" stroke="black" stroke-width="0.666667" stroke-linecap="square"/>
<path d="M82.9338 32.4409L26.2717 4.12793" stroke="black" stroke-width="0.666667" stroke-linecap="square"/>
<path d="M98.795 33.9997L45.6448 4.12793" stroke="black" stroke-width="0.666667" stroke-linecap="square"/>
<path d="M114.422 36.6548L65.0176 4.12793" stroke="black" stroke-width="0.666667" stroke-linecap="square"/>
<path d="M130.796 38.8649L84.3906 4.12793" stroke="black" stroke-width="0.666667" stroke-linecap="square"/>
<path d="M145.087 33.978L103.764 4.12793" stroke="black" stroke-width="0.666667" stroke-linecap="square"/>
<path d="M155.102 25.8897L123.137 4.12793" stroke="black" stroke-width="0.666667" stroke-linecap="square"/>
<path d="M161.13 40.2905L142.51 4.12793" stroke="black" stroke-width="0.666667" stroke-linecap="square"/>
<path d="M164.5 55.7096L161.883 4.12793" stroke="black" stroke-width="0.666667" stroke-linecap="square"/>
<path d="M168.573 71.2427L181.255 4.12793" stroke="black" stroke-width="0.666667" stroke-linecap="square"/>
<path d="M175.777 85.3767L200.628 4.12793" stroke="black" stroke-width="0.666667" stroke-linecap="square"/>
<path d="M189.073 89.2448L220.001 4.12793" stroke="black" stroke-width="0.666667" stroke-linecap="square"/>
<path d="M203.902 83.7491L239.374 4.12793" stroke="black" stroke-width="0.666667" stroke-linecap="square"/>
<path d="M218.486 76.6209L258.747 4.12793" stroke="black" stroke-width="0.666667" stroke-linecap="square"/>
<path d="M233.304 71.146L278.12 4.12793" stroke="black" stroke-width="0.666667" stroke-linecap="square"/>
<path d="M247.948 71.774L297.493 4.12793" stroke="black" stroke-width="0.666667" stroke-linecap="square"/>
<path d="M260.429 78.6646L316.866 4.12793" stroke="black" stroke-width="0.666667" stroke-linecap="square"/>
<path d="M273.371 89.2475L327.199 11.8772" stroke="black" stroke-width="0.666667" stroke-linecap="square"/>
<path d="M285.687 102.155L327.199 31.2502" stroke="black" stroke-width="0.666667" stroke-linecap="square"/>
<path d="M295.769 115.595L327.199 50.623" stroke="black" stroke-width="0.666667" stroke-linecap="square"/>
<path d="M301.839 127.413L327.199 69.9961" stroke="black" stroke-width="0.666667" stroke-linecap="square"/>
<path d="M299.265 142.173L327.198 89.3691" stroke="black" stroke-width="0.666667" stroke-linecap="square"/>
<path d="M289.677 154.942L327.199 108.742" stroke="black" stroke-width="0.666667" stroke-linecap="square"/>
<path d="M282.248 168.518L327.199 128.115" stroke="black" stroke-width="0.666667" stroke-linecap="square"/>
<path d="M285.262 182.636L327.198 147.488" stroke="black" stroke-width="0.666667" stroke-linecap="square"/>
<path d="M295.596 195.22L327.199 166.861" stroke="black" stroke-width="0.666667" stroke-linecap="square"/>
<path d="M306.941 206.425L327.199 186.234" stroke="black" stroke-width="0.666667" stroke-linecap="square"/>
<path d="M318.273 217.982L327.198 205.607" stroke="black" stroke-width="0.666667" stroke-linecap="square"/>
<path d="M327.004 231.311L327.198 224.98" stroke="black" stroke-width="0.666667" stroke-linecap="square"/>
<path d="M322.82 244.578L327.199 244.353" stroke="black" stroke-width="0.666667" stroke-linecap="square"/>
<path d="M310.194 253.73L327.199 263.726" stroke="black" stroke-width="0.666667" stroke-linecap="square"/>
<path d="M295.974 260.664L327.199 283.099" stroke="black" stroke-width="0.666667" stroke-linecap="square"/>
<path d="M281.298 267.097L327.199 302.472" stroke="black" stroke-width="0.666667" stroke-linecap="square"/>
<path d="M267.629 273.704L327.199 321.845" stroke="black" stroke-width="0.666667" stroke-linecap="square"/>
<path d="M253.707 281.685L312.669 326.688" stroke="black" stroke-width="0.666667" stroke-linecap="square"/>
<path d="M240.081 289.469L293.296 326.688" stroke="black" stroke-width="0.666667" stroke-linecap="square"/>
<path d="M225.134 296.729L273.923 326.688" stroke="black" stroke-width="0.666667" stroke-linecap="square"/>
<path d="M209.781 301.35L254.55 326.688" stroke="black" stroke-width="0.666667" stroke-linecap="square"/>
<path d="M195.477 301.033L235.177 326.688" stroke="black" stroke-width="0.666667" stroke-linecap="square"/>
<path d="M182.702 292.84L215.804 326.688" stroke="black" stroke-width="0.666667" stroke-linecap="square"/>
<path d="M173.044 280.525L196.431 326.688" stroke="black" stroke-width="0.666667" stroke-linecap="square"/>
<path d="M164.118 267.057L177.058 326.688" stroke="black" stroke-width="0.666667" stroke-linecap="square"/>
<path d="M154.617 254.1L157.685 326.688" stroke="black" stroke-width="0.666667" stroke-linecap="square"/>
<path d="M143.47 243.223L138.312 326.688" stroke="black" stroke-width="0.666667" stroke-linecap="square"/>
<path d="M130.129 236.457L118.939 326.688" stroke="black" stroke-width="0.666667" stroke-linecap="square"/>
<path d="M115.566 234.644L99.5662 326.688" stroke="black" stroke-width="0.666667" stroke-linecap="square"/>
<path d="M98.7556 235.504L80.1931 326.688" stroke="black" stroke-width="0.666667" stroke-linecap="square"/>
<path d="M83.3212 237.495L60.8203 326.688" stroke="black" stroke-width="0.666667" stroke-linecap="square"/>
<path d="M67.5535 240.018L41.4473 326.688" stroke="black" stroke-width="0.666667" stroke-linecap="square"/>
<path d="M51.1224 242.646L22.0742 326.688" stroke="black" stroke-width="0.666667" stroke-linecap="square"/>
<path d="M35.8715 244.506L4.63867 324.751" stroke="black" stroke-width="0.666667" stroke-linecap="square"/>
<path d="M20.5375 244.583L4.63867 305.378" stroke="black" stroke-width="0.666667" stroke-linecap="square"/>
<path d="M8.07859 237.764L4.63867 286.005" stroke="black" stroke-width="0.666667" stroke-linecap="square"/>
<path d="M6.73728 222.097L4.63867 266.632" stroke="black" stroke-width="0.666667" stroke-linecap="square"/>
<path d="M10.5898 207.281L4.63867 247.259" stroke="black" stroke-width="0.666667" stroke-linecap="square"/>
<path d="M16.7386 191.728L4.63867 227.886" stroke="black" stroke-width="0.666667" stroke-linecap="square"/>
<path d="M23.7708 176.831L4.63867 208.513" stroke="black" stroke-width="0.666667" stroke-linecap="square"/>
<path d="M30.8275 163.13L4.63867 189.14" stroke="black" stroke-width="0.666667" stroke-linecap="square"/>
<path d="M37.8309 149.896L4.63867 169.767" stroke="black" stroke-width="0.666667" stroke-linecap="square"/>
<path d="M47.8878 137.35L4.63867 150.394" stroke="black" stroke-width="0.666667" stroke-linecap="square"/>
<path d="M59.9244 127.988L4.63867 131.021" stroke="black" stroke-width="0.666667" stroke-linecap="square"/>
<path d="M72.7781 118.255L4.63867 111.648" stroke="black" stroke-width="0.666667" stroke-linecap="square"/>
<path d="M81.2016 105.854L4.63867 92.2751" stroke="black" stroke-width="0.666667" stroke-linecap="square"/>
<path d="M81.1202 90.6696L4.63867 72.9021" stroke="black" stroke-width="0.666667" stroke-linecap="square"/>
<path d="M76.56 75.4382L4.63867 53.5291" stroke="black" stroke-width="0.666667" stroke-linecap="square"/>
<path d="M70.9265 60.0688L4.63867 34.156" stroke="black" stroke-width="0.666667" stroke-linecap="square"/>
<path d="M66.9383 45.2045L4.63867 14.7832" stroke="black" stroke-width="0.666667" stroke-linecap="square"/>
<path fill-rule="evenodd" clip-rule="evenodd" d="M133.998 38.8204C119.347 40.3985 76.2277 25.5481 67.2333 36.5938C58.2391 47.6395 85.2243 86.0666 80.0319 105.095C74.8394 124.123 47.855 128.113 36.0784 150.762C24.3017 173.41 -6.29908 226.598 9.37205 240.986C25.0432 255.373 99.3195 227.062 130.105 237.087C160.891 247.111 170.719 295.377 194.086 301.131C217.454 306.886 248.333 282.568 270.31 271.615C292.287 260.663 324.185 251.382 325.947 235.417C327.709 219.452 285.146 193.832 280.881 175.825C276.616 157.817 306.383 144.822 300.355 127.372C294.328 109.921 265.026 77.62 244.718 71.1226C224.411 64.6251 193.44 95.7198 178.51 88.3869C163.581 81.054 162.559 35.3863 155.14 27.1252C147.722 18.8641 148.649 37.2423 133.998 38.8204Z" fill="#E8C9BF" stroke="black" stroke-width="2.67" stroke-dasharray="6 4"/>
<path d="M504.329 104.85V208.8L421.229 112.8L418.529 109.35L418.829 113.7V198.15H430.679V204H400.529V198.15H412.679V104.85H400.529V99H416.729L495.779 191.1L498.629 195L498.179 190.2V104.85H486.779V99H516.929V104.85H504.329ZM557.535 204H527.385V198.15H539.085V104.85H527.385V99H557.535V104.85H545.235V198.15H557.535V204ZM648.957 198C644.957 200.3 640.657 202.15 636.057 203.55C631.557 204.85 626.757 205.5 621.657 205.5C614.257 205.5 607.307 204.1 600.807 201.3C594.307 198.5 588.657 194.65 583.857 189.75C578.957 184.95 575.107 179.3 572.307 172.8C569.507 166.3 568.107 159.35 568.107 151.95C568.107 144.55 569.507 137.6 572.307 131.1C575.107 124.5 578.957 118.75 583.857 113.85C588.657 109.05 594.307 105.25 600.807 102.45C607.307 99.55 614.257 98.1 621.657 98.1C626.757 98.1 631.557 98.75 636.057 100.05C640.657 101.35 645.007 103.2 649.107 105.6L645.657 110.7C642.157 108.5 638.357 106.85 634.257 105.75C630.257 104.55 626.057 103.95 621.657 103.95C615.057 103.95 608.907 105.25 603.207 107.85C597.507 110.35 592.507 113.8 588.207 118.2C583.907 122.5 580.507 127.6 578.007 133.5C575.507 139.3 574.257 145.5 574.257 152.1C574.257 158.6 575.507 164.75 578.007 170.55C580.507 176.35 583.907 181.35 588.207 185.55C592.407 189.85 597.357 193.3 603.057 195.9C608.757 198.4 614.857 199.65 621.357 199.65C625.257 199.65 629.007 199.2 632.607 198.3C636.207 197.4 639.607 196.1 642.807 194.4V165.15H621.057V159.3H648.957V198ZM688.464 204H659.514V198.15H671.214V153.6H660.414V147.75H676.164L676.314 153.15C676.414 154.85 676.514 156.4 676.614 157.8C676.714 159.1 676.814 160.6 676.914 162.3C678.914 157.6 682.114 153.8 686.514 150.9C690.914 148 695.914 146.55 701.514 146.55C707.014 146.55 711.364 148.1 714.564 151.2C717.764 154.3 719.464 158.35 719.664 163.35V198.15H730.764V204H701.814V198.15H713.514V165C713.314 161.7 712.114 158.9 709.914 156.6C707.814 154.2 704.664 152.9 700.464 152.7C697.364 152.7 694.414 153.2 691.614 154.2C688.814 155.2 686.414 156.6 684.414 158.4C682.214 160.3 680.464 162.5 679.164 165C677.964 167.5 677.364 170.25 677.364 173.25V198.15H688.464V204ZM770.652 152.55C766.852 152.55 763.352 153.35 760.152 154.95C757.052 156.55 754.452 158.7 752.352 161.4C750.352 164 748.952 166.95 748.152 170.25C747.352 173.45 747.302 176.75 748.002 180.15C754.802 177.45 761.552 174.8 768.252 172.2C775.052 169.5 781.852 166.8 788.652 164.1C786.852 160.7 784.352 157.95 781.152 155.85C778.052 153.65 774.552 152.55 770.652 152.55ZM790.302 197.25C787.702 199.65 784.752 201.55 781.452 202.95C778.152 204.35 774.552 205.05 770.652 205.05C766.552 205.05 762.702 204.3 759.102 202.8C755.602 201.3 752.502 199.2 749.802 196.5C747.102 193.8 745.002 190.7 743.502 187.2C742.002 183.7 741.252 179.9 741.252 175.8C741.252 171.8 742.002 168 743.502 164.4C745.002 160.8 747.102 157.7 749.802 155.1C752.502 152.5 755.602 150.45 759.102 148.95C762.702 147.35 766.552 146.55 770.652 146.55C773.752 146.55 776.702 147.1 779.502 148.2C782.302 149.2 784.802 150.7 787.002 152.7C789.102 154.5 790.952 156.7 792.552 159.3C794.152 161.8 795.452 164.55 796.452 167.55C788.652 170.65 780.852 173.7 773.052 176.7C765.352 179.7 757.602 182.8 749.802 186C751.602 189.9 754.352 193.05 758.052 195.45C761.752 197.85 765.952 199.05 770.652 199.05C773.752 199.05 776.652 198.5 779.352 197.4C782.052 196.3 784.452 194.75 786.552 192.75L790.302 197.25ZM838.963 204H820.513V153.75H807.463V147.75H820.513V111.15H826.663V147.75H844.063V153.75H826.663V198.15H838.963V204ZM888.981 199.2C887.481 201 885.531 202.45 883.131 203.55C880.831 204.65 877.981 205.2 874.581 205.2C871.381 205.2 868.231 204.8 865.131 204C862.131 203.3 859.481 201.85 857.181 199.65V188.7H862.731V196.35C864.631 197.55 866.581 198.35 868.581 198.75C870.581 199.05 872.681 199.2 874.881 199.2C876.381 199.2 877.831 199 879.231 198.6C880.631 198.1 881.931 197.4 883.131 196.5C884.231 195.6 885.081 194.55 885.681 193.35C886.381 192.05 886.731 190.5 886.731 188.7C886.731 186.1 886.081 184.1 884.781 182.7C883.481 181.3 881.781 180.2 879.681 179.4C877.681 178.5 875.481 177.7 873.081 177C870.681 176.3 868.431 175.45 866.331 174.45C864.231 173.45 862.481 172.05 861.081 170.25C859.781 168.35 859.131 165.75 859.131 162.45C859.131 159.75 859.581 157.45 860.481 155.55C861.481 153.65 862.781 152.05 864.381 150.75C865.981 149.45 867.831 148.5 869.931 147.9C872.031 147.2 873.981 146.85 875.781 146.85C877.081 146.85 878.331 146.95 879.531 147.15C880.731 147.25 882.131 147.55 883.731 148.05C885.031 148.55 886.281 149.15 887.481 149.85C888.681 150.45 889.781 151.2 890.781 152.1V163.05H885.081V155.25C883.681 154.45 882.231 153.85 880.731 153.45C879.231 153.05 877.631 152.85 875.931 152.85C874.631 152.85 873.281 153.05 871.881 153.45C870.581 153.75 869.431 154.25 868.431 154.95C867.531 155.75 866.781 156.75 866.181 157.95C865.581 159.15 865.281 160.6 865.281 162.3C865.281 164.5 865.981 166.25 867.381 167.55C868.881 168.75 870.631 169.75 872.631 170.55C874.731 171.45 876.931 172.3 879.231 173.1C881.631 173.8 883.881 174.75 885.981 175.95C887.981 177.15 889.631 178.7 890.931 180.6C892.331 182.5 893.031 185.05 893.031 188.25C893.031 190.05 892.681 191.95 891.981 193.95C891.381 195.85 890.381 197.6 888.981 199.2Z" fill="black"/>
</svg>
